<svg width="194" height="48" viewBox="0 0 194 48" fill="none" xmlns="http://www.w3.org/2000/svg">
<g clip-path="url(#clip0_18_923)">
<path d="M20.8494 0.78162C18.3405 1.06342 14.5772 2.23399 12.4359 3.40456C6.6828 6.5044 2.78969 11.3384 0.84313 17.7765C0.453819 19.0338 -0.000376772 22.4588 0.0212516 24.0629C0.0212516 25.4719 0.453819 28.9186 0.71336 29.7423C0.84313 30.1325 1.1243 31.0646 1.36221 31.78C1.75152 32.9939 3.63319 36.8091 3.95762 37.0692C4.0225 37.1343 4.36856 37.5678 4.69298 38.0664C5.49323 39.2586 7.59119 41.383 9.17006 42.5969C10.3813 43.529 13.7985 45.5016 14.2311 45.5233C14.3392 45.5233 14.3609 44.6996 14.296 43.6157C14.1446 41.2096 14.5988 37.9363 15.5721 34.598C15.7451 34.0344 15.8749 33.2974 15.8749 32.9722C15.8749 32.6471 15.9614 32.3002 16.0695 32.1919C16.1777 32.0618 16.3723 31.4332 16.4805 30.7828C16.6102 30.1325 16.8265 29.1354 16.9779 28.5718C17.1942 27.7264 17.1726 27.4012 16.8698 26.4908C16.4372 25.1034 16.4156 22.849 16.8481 21.7651C17.8647 19.1855 18.9893 18.2101 20.8926 18.2101C23.1853 18.2101 24.2883 19.9443 23.8557 22.849C23.6611 24.1713 23.1204 26.2523 22.7743 26.9026C22.6878 27.0977 22.5364 27.6397 22.4715 28.0949C22.385 28.5718 22.212 29.2438 22.1038 29.6123C21.801 30.4577 22.385 32.1052 23.1636 32.7338C23.899 33.3191 25.4346 33.4925 26.8405 33.1673C27.8354 32.9506 28.2463 32.6904 29.2845 31.6933C30.5173 30.4794 31.4473 29.0703 31.4473 28.3983C31.4473 28.2033 31.5554 27.9431 31.6852 27.8131C32.2908 27.2061 32.6152 22.4805 32.161 20.4862C31.6636 18.2968 30.128 16.1507 28.1382 14.8935C26.1483 13.6145 22.039 13.246 19.5084 14.1131C17.7349 14.72 16.156 15.7389 15.1395 16.9311C14.2311 17.9933 13.2795 19.7275 13.2795 20.3344C13.2795 20.5512 13.1713 20.833 13.0415 20.9631C12.9118 21.0931 12.7604 21.9169 12.6955 22.8056C12.5873 24.1279 12.6739 24.7349 13.0632 26.0355C13.3227 26.9243 13.7985 27.9648 14.0797 28.355C14.6637 29.1354 14.6637 29.4389 14.123 31.5199C13.9716 32.0835 13.712 32.6037 13.5606 32.6688C12.198 33.189 9.4296 29.9158 8.49958 26.6642C8.15353 25.4286 8.1319 21.0281 8.47795 19.7275C8.62935 19.1855 8.88889 18.4485 9.06192 18.0583C9.23495 17.6898 9.38634 17.3213 9.38634 17.2346C9.38634 17.1479 9.81891 16.4109 10.3596 15.6088C13.1713 11.3601 17.7349 9.10566 23.5097 9.10566C24.829 9.10566 26.1916 9.19237 26.5593 9.30075C29.544 10.2329 30.3443 10.5364 31.5122 11.23C33.7832 12.5957 35.4269 14.4599 37.0707 17.5814C37.1788 17.7765 37.3302 18.2968 37.3951 18.7303C37.4816 19.1639 37.633 19.5757 37.7412 19.6408C37.8493 19.7058 37.9358 21.1148 37.9358 22.784C37.9358 25.7971 37.7195 27.011 36.8111 29.4822C35.7946 32.1919 33.1776 35.1833 30.7984 36.3539C29.4359 37.0042 26.8837 37.7195 25.8672 37.7195C24.5046 37.7195 21.8227 36.5923 21.0873 35.6819C20.7412 35.27 20.4168 35.4218 20.4168 36.007C20.4168 36.2238 20.3303 36.5923 20.2005 36.8091C20.0924 37.0042 19.8977 37.6112 19.7896 38.1531C19.1624 41.0145 18.2756 43.3339 16.913 45.5016C16.5021 46.1736 16.8481 46.5638 17.9728 46.7156C18.5352 46.8023 19.2921 46.954 19.6382 47.0624C20.5033 47.3442 25.1967 47.3009 26.7756 47.0191C28.203 46.7589 30.5173 46.1086 31.5554 45.6751C38.0872 42.9871 43.0401 37.5244 45.1813 30.5661C46.3276 26.8593 46.3925 22.5455 45.3544 18.2101C45.0083 16.8011 44.9002 16.4759 43.9701 14.3082C42.6292 11.1433 39.6012 7.43651 36.53 5.16041C33.8913 3.20946 31.2959 2.08225 27.2514 1.10678C26.1267 0.846652 22.1255 0.62988 20.8494 0.78162ZM78.5323 8.60708C77.6888 8.73715 76.3478 10.1245 76.0018 11.2083C75.6341 12.4006 76.0018 13.6795 77.0399 14.6767C79.3326 16.9094 83.3122 14.8068 82.8147 11.5985C82.5119 9.56088 80.6519 8.26025 78.5323 8.60708ZM54.9574 9.88604C54.7627 10.1028 54.7627 36.2455 54.979 36.549C55.0871 36.7224 56.0172 36.7874 57.8339 36.7657L60.5375 36.7441L60.6456 32.3436C60.7321 28.7669 60.8187 27.8998 61.0782 27.748C61.2512 27.6396 62.722 27.5313 64.3441 27.5313C67.8911 27.5313 69.3835 27.2711 71.0056 26.4041C73.1252 25.2552 74.358 23.6077 75.0285 20.9848C75.4394 19.3373 75.4394 18.145 75.0069 16.4542C74.6176 14.9368 74.4445 14.5683 73.5145 13.3327C72.3682 11.7936 71.2003 10.9482 69.297 10.2762C68.2372 9.92939 67.3504 9.86436 61.6189 9.79933C58.0502 9.75597 55.0439 9.79933 54.9574 9.88604ZM66.8313 15.2837C68.2804 15.7389 68.9942 16.3892 69.3186 17.5598C69.7295 19.0988 69.4268 20.5295 68.5184 21.3966C67.5235 22.3287 66.6367 22.5455 63.7385 22.5455C61.8352 22.5455 61.2512 22.4805 60.9917 22.1987C60.7105 21.9386 60.6456 21.3099 60.6456 18.8387C60.6456 14.9368 60.624 14.9585 63.6303 14.9585C64.928 14.9585 66.1825 15.0886 66.8313 15.2837ZM104.768 14.0047C104.768 15.5004 104.659 16.9094 104.551 17.1479C104.4 17.4297 104.097 17.5598 103.578 17.5598C103.189 17.5598 102.821 17.6465 102.778 17.7765C102.756 17.8849 102.756 18.6436 102.821 19.4457C102.929 20.8764 102.951 20.898 103.6 21.0498C103.967 21.1148 104.378 21.2449 104.508 21.3316C104.703 21.44 104.768 23.1525 104.768 27.4879C104.768 33.3191 104.789 33.5358 105.265 34.4029C106.26 36.2455 107.817 36.8958 110.975 36.8091L113.094 36.7441L113.159 34.6414L113.224 32.517H112.684C111.862 32.517 110.65 31.8667 110.521 31.3465C110.456 31.0863 110.391 28.7885 110.391 26.209C110.391 22.6539 110.456 21.4617 110.672 21.2882C110.823 21.1582 111.429 21.0281 112.013 20.9848L113.094 20.9197V17.6681L111.905 17.6031C111.256 17.5598 110.65 17.408 110.564 17.278C110.477 17.1262 110.391 15.7172 110.391 14.1348V11.2734H104.768V14.0047ZM185.16 11.4034C185.074 11.4901 185.009 12.8558 185.009 14.4382C185.009 17.5164 184.987 17.5598 183.798 17.5598C183.257 17.5598 183.257 17.5814 183.322 19.2289C183.387 20.8764 183.408 20.9197 183.971 20.9848C184.273 21.0281 184.641 21.1798 184.749 21.3099C184.879 21.4617 185.009 24.0846 185.074 27.4229C185.139 30.6311 185.247 33.5575 185.333 33.9044C185.593 34.8582 186.934 36.0721 188.21 36.4839C189.637 36.9608 193.271 37.0042 193.639 36.549C193.812 36.3539 193.877 35.5735 193.833 34.4463L193.768 32.6254L193.011 32.4953C192.189 32.3653 191.259 31.9317 191.022 31.5632C190.935 31.4332 190.849 29.0703 190.849 26.3173C190.849 20.6596 190.719 21.0281 192.6 21.0281C193.833 21.0281 193.941 20.8113 193.833 18.8387L193.768 17.6681L192.363 17.5598L190.957 17.4514L190.849 14.4166L190.74 11.3818L188.015 11.3167C186.523 11.2951 185.247 11.3384 185.16 11.4034ZM94.0615 17.0395C93.0017 17.3213 91.7689 18.0367 90.947 18.8821C89.9521 19.9226 89.6926 19.8575 89.5844 18.5352L89.5195 17.6681H84.1124V36.7441L86.8376 36.7874C89.5195 36.8525 89.5844 36.8308 89.7142 36.3539C89.7791 36.0938 89.8439 33.3407 89.8439 30.2192C89.8439 24.0412 89.8656 23.8678 91.1417 22.6539C91.704 22.112 92.0068 22.0036 93.218 21.9385L94.6238 21.8518L95.4673 22.7406C96.4622 23.7811 96.3541 22.784 96.4406 31.7583C96.4622 34.1428 96.4839 36.2455 96.5055 36.4623C96.5487 36.7657 96.8948 36.8091 99.3172 36.7657L102.064 36.7441V21.5267L101.437 20.2911C100.355 18.145 98.69 17.1262 96.1378 16.9962C95.2294 16.9745 94.2994 16.9745 94.0615 17.0395ZM121.097 17.0395C118.761 17.6681 117.636 18.2968 116.187 19.7275C114.241 21.7001 113.354 23.9979 113.354 27.0977C113.376 32.5387 116.771 36.5706 121.789 37.0475C126.072 37.4594 129.381 36.2021 131.5 33.3624C131.803 32.9506 132.452 31.6283 132.452 31.3898C132.452 31.3031 131.197 31.2164 129.683 31.2164H126.915L126.266 31.8884C125.509 32.6688 124.449 33.1673 123.476 33.1673C122.503 33.1673 121.01 32.4737 120.318 31.7366C119.799 31.1514 119.042 29.4605 119.042 28.8752C119.042 28.6802 120.621 28.6151 125.704 28.6151C129.359 28.6151 132.452 28.5284 132.603 28.4417C132.928 28.2249 132.625 24.7783 132.149 23.521C131.176 20.898 129.337 18.687 127.477 17.9066C126.937 17.6898 126.309 17.408 126.093 17.2996C125.639 17.0612 121.789 16.8661 121.097 17.0395ZM125.315 21.7868C126.158 22.3721 126.893 23.7594 126.785 24.5398C126.72 25.0384 126.677 25.0384 123.022 25.1034C118.804 25.1685 118.783 25.1468 119.453 23.586C119.929 22.5022 120.881 21.5267 121.767 21.2449C122.784 20.9197 124.428 21.1798 125.315 21.7868ZM153.107 17.0395C150.598 17.7115 148.846 18.817 147.484 20.5295C146.943 21.2232 146.51 21.8735 146.51 22.0036C146.51 22.112 146.359 22.5022 146.164 22.8707C145.97 23.2175 145.688 24.3014 145.537 25.2768C144.78 29.9158 146.856 34.2512 150.749 36.2021L152.242 36.9608H155.378C158.622 36.9608 158.903 36.8958 160.893 35.8336C162.342 35.0532 164.721 32.0184 164.354 31.4115C164.267 31.3031 163.034 31.2164 161.585 31.2164H158.925L158.384 31.845C156.221 34.2945 152.177 33.0373 151.312 29.634C151.182 29.1787 151.182 28.7885 151.29 28.7018C151.398 28.6368 154.491 28.5934 158.19 28.6151C163.467 28.6151 164.894 28.5718 164.916 28.355C165.111 25.6453 163.813 21.6351 162.191 19.9009C161.283 18.9254 159.704 17.8416 158.925 17.6465C158.579 17.5598 158.19 17.408 158.038 17.2996C157.735 17.0612 153.777 16.8661 153.107 17.0395ZM156.481 21.2666C157.454 21.6134 158.579 22.8273 158.752 23.7594C159.012 25.1684 159.033 25.1685 155.01 25.1034C151.398 25.0384 151.377 25.0384 151.312 24.5398C151.225 23.9328 151.982 22.4371 152.631 21.8735C153.561 21.0931 155.183 20.833 156.481 21.2666ZM171.924 17.0395C167.49 18.1017 165.889 19.6841 165.868 22.9791C165.868 26.5341 167.641 28.0298 172.897 28.962C176.509 29.5906 177.547 30.1542 177.504 31.5199C177.482 32.4953 176.812 33.124 175.471 33.4058C173.784 33.7743 172.464 33.3624 171.405 32.1702L170.561 31.2164H167.944C165.824 31.2164 165.327 31.2814 165.327 31.5199C165.327 32.1485 166.192 33.796 166.906 34.6197C167.576 35.335 168.095 35.6819 170.129 36.6574C170.323 36.7657 171.383 36.9392 172.443 37.0692C174.411 37.3077 177.828 37.0909 178.693 36.6574C178.888 36.5707 179.45 36.2888 179.926 36.0721C181.159 35.4868 182.327 34.1645 182.76 32.9072C183.235 31.4765 183.106 29.4822 182.435 28.0949C181.635 26.4691 179.515 25.2985 176.358 24.7349C172.291 24.0196 172.227 23.9979 171.578 23.3692C170.799 22.5672 170.799 22.2854 171.578 21.4183C172.205 20.7246 172.248 20.703 173.978 20.703C175.709 20.703 175.752 20.7246 176.379 21.4183C176.725 21.8085 177.006 22.2637 177.006 22.4371C177.006 22.6973 177.461 22.7623 179.71 22.7623C182.695 22.7623 182.608 22.8273 182.089 21.2882C181.137 18.5569 178.693 17.1696 174.627 17.0178C173.373 16.9745 172.162 16.9745 171.924 17.0395ZM143.158 17.4947C142.206 17.8199 140.887 18.9037 140.476 19.6841C140.065 20.4645 139.697 20.1393 139.589 18.8387L139.481 17.6681H134.074L134.009 26.7726C133.988 31.78 134.009 36.0938 134.074 36.3756C134.182 36.8525 134.247 36.8525 136.842 36.8091C138.335 36.7874 139.546 36.6574 139.633 36.5273C139.719 36.4189 139.806 34.1211 139.806 31.4332C139.806 27.1844 139.849 26.4257 140.216 25.4719C140.973 23.4993 142.596 22.3287 144.629 22.3287C145.191 22.3287 145.429 22.2204 145.494 21.9385C145.645 21.3099 145.667 18.3835 145.537 17.7332C145.407 17.2129 145.299 17.1262 144.715 17.1479C144.326 17.1696 143.634 17.3213 143.158 17.4947ZM76.5425 17.8199C76.4776 17.9716 76.456 22.242 76.4776 27.3145L76.5425 36.5273L79.1163 36.6357C80.6735 36.7007 81.7982 36.6574 81.9712 36.5273C82.2091 36.3539 82.274 34.5113 82.274 27.1411C82.2956 22.112 82.2308 17.8849 82.1659 17.7765C81.9496 17.4514 76.6506 17.4947 76.5425 17.8199Z" fill="#AEAEC4"/>
</g>
<defs>
<clipPath id="clip0_18_923">
<rect width="194" height="48" fill="white"/>
</clipPath>
</defs>
</svg>
