<svg width="153" height="48" viewBox="0 0 153 48" fill="none" xmlns="http://www.w3.org/2000/svg">
<path d="M80.6347 12.0607C80.6347 13.7906 79.2485 15.1835 77.5281 15.1835C75.8077 15.1835 74.4225 13.7906 74.4225 12.0607C74.4225 10.3308 75.7605 8.9379 77.5281 8.9379C79.2972 8.9859 80.6347 10.3793 80.6347 12.0607ZM67.8283 18.3553V19.1243C67.8283 19.1243 66.3476 17.2014 63.1938 17.2014C57.9859 17.2014 53.9236 21.1897 53.9236 26.7148C53.9236 32.1925 57.9381 36.2282 63.1938 36.2282C66.3953 36.2282 67.8283 34.2584 67.8283 34.2584V35.0748C67.8283 35.4593 68.1157 35.7468 68.4976 35.7468H72.3675V17.6805H68.4976C68.1157 17.6819 67.8283 18.0189 67.8283 18.3553ZM67.8283 29.9341C67.1123 30.9915 65.6784 31.9045 63.9585 31.9045C60.9006 31.9045 58.5587 29.9826 58.5587 26.7148C58.5587 23.4475 60.9006 21.5257 63.9585 21.5257C65.6311 21.5257 67.16 22.4866 67.8283 23.4955V29.9341ZM75.2349 17.6819H79.8218V35.7482H75.2349V17.6819ZM143.756 17.2009C140.602 17.2009 139.121 19.1238 139.121 19.1238V8.9859H134.534V35.7482H138.405C138.787 35.7482 139.073 35.4118 139.073 35.0753V34.2588C139.073 34.2588 140.555 36.2287 143.707 36.2287C148.916 36.2287 152.978 32.1939 152.978 26.7163C152.978 21.2386 148.916 17.2009 143.756 17.2009ZM142.991 31.856C141.223 31.856 139.838 30.944 139.121 29.8861V23.4475C139.838 22.4866 141.367 21.4776 142.991 21.4776C146.049 21.4776 148.391 23.3995 148.391 26.6668C148.391 29.9341 146.05 31.856 142.991 31.856ZM132.145 25.0339V35.7963H127.557V25.5619C127.557 22.5835 126.602 21.3817 124.023 21.3817C122.638 21.3817 121.204 22.1026 120.294 23.16V35.7487H115.708V17.6824H119.339C119.721 17.6824 120.008 18.0189 120.008 18.3553V19.1243C121.346 17.7304 123.114 17.2014 124.881 17.2014C126.889 17.2014 128.561 17.7789 129.899 18.9318C131.523 20.2772 132.145 22.0066 132.145 25.0339ZM104.573 17.2009C101.42 17.2009 99.9388 19.1238 99.9388 19.1238V8.9859H95.3519V35.7482H99.2218C99.6041 35.7482 99.891 35.4118 99.891 35.0753V34.2588C99.891 34.2588 101.373 36.2287 104.526 36.2287C109.734 36.2287 113.796 32.1939 113.796 26.7163C113.843 21.2381 109.782 17.2009 104.573 17.2009ZM103.809 31.856C102.041 31.856 100.656 30.944 99.9388 29.8861V23.4475C100.656 22.4866 102.185 21.4776 103.809 21.4776C106.868 21.4776 109.208 23.3995 109.208 26.6668C109.208 29.9341 106.868 31.856 103.809 31.856ZM91.3856 17.2009C92.7709 17.2009 93.4878 17.4419 93.4878 17.4419V21.7176C93.4878 21.7176 89.6652 20.4202 87.2766 23.1595V35.7958H82.6887V17.6819H86.5596C86.9419 17.6819 87.2279 18.0184 87.2279 18.3548V19.1238C88.089 18.1144 89.9526 17.2009 91.3856 17.2009ZM43.7465 34.1144C43.5078 33.5379 43.2687 32.9134 43.03 32.3845C42.6472 31.52 42.2648 30.7026 41.9311 29.9341L41.8834 29.8861C38.5859 22.6786 35.0506 15.376 31.323 8.16945L31.1798 7.88048C30.7877 7.13288 30.4056 6.38004 30.0336 5.62213C29.5553 4.75671 29.078 3.84472 28.3133 2.9793C26.7843 1.05742 24.5861 0 22.2452 0C19.8556 0 17.7056 1.05742 16.1294 2.88283C15.4124 3.74729 14.8864 4.66024 14.409 5.52566C14.0361 6.28309 13.654 7.03592 13.2629 7.78401L13.1192 8.07296C9.4398 15.2795 5.85633 22.5826 2.55927 29.7897L2.51107 29.8852C2.17692 30.6551 1.79408 31.4715 1.41172 32.3355C1.17305 32.8645 0.934374 33.4409 0.695699 34.0654C0.0741886 35.8428 -0.117238 37.5247 0.122392 39.2551C0.647955 42.8588 3.03662 45.8847 6.33415 47.2311C7.5767 47.76 8.86697 48 10.2045 48C10.5869 48 11.0642 47.952 11.4471 47.9035C13.0242 47.7115 14.6487 47.1835 16.2258 46.2706C18.1849 45.1652 20.0484 43.5802 22.1507 41.2739C24.2529 43.5802 26.1643 45.1652 28.0756 46.2706C29.6532 47.1835 31.2771 47.7115 32.8538 47.9035C33.2362 47.9525 33.7145 48 34.0969 48C35.4349 48 36.7724 47.76 37.9667 47.2311C41.312 45.8847 43.6529 42.8108 44.179 39.2551C44.5585 37.5737 44.3675 35.8927 43.7465 34.1144ZM22.197 36.6127C19.6164 33.3454 17.9438 30.2706 17.371 27.6767C17.1323 26.5713 17.0841 25.6104 17.2278 24.7454C17.3228 23.9765 17.6101 23.3035 17.9925 22.7271C18.9004 21.4306 20.4294 20.6132 22.1975 20.6132C23.9661 20.6132 25.5427 21.3821 26.4029 22.7271C26.7853 23.3035 27.0717 23.977 27.1681 24.7454C27.3108 25.6109 27.2631 26.6193 27.0244 27.6767C26.4492 30.2226 24.7766 33.2979 22.197 36.6127ZM41.2614 38.8711C40.9273 41.3694 39.2546 43.5322 36.9137 44.4932C35.7671 44.9732 34.5241 45.1176 33.2825 44.9732C32.0882 44.8287 30.8929 44.4442 29.6513 43.7242C27.9309 42.7623 26.211 41.2739 24.2038 39.0631C27.3572 35.1718 29.2685 31.6155 29.9854 28.4452C30.3201 26.9553 30.3683 25.6104 30.2241 24.3605C30.0337 23.1595 29.6031 22.0541 28.9343 21.0932C27.4521 18.9303 24.9671 17.6819 22.1965 17.6819C19.426 17.6819 16.9409 18.9793 15.4597 21.0932C14.7909 22.0541 14.3603 23.1595 14.1694 24.3605C13.9784 25.6104 14.0257 27.0033 14.4081 28.4452C15.1246 31.6155 17.0836 35.2193 20.1893 39.1111C18.2302 41.3214 16.4621 42.8113 14.7417 43.7723C13.4992 44.4932 12.3053 44.8777 11.111 45.0212C9.82121 45.1657 8.57819 44.9732 7.47932 44.5412C5.1384 43.5803 3.46576 41.4174 3.13162 38.9191C2.98841 37.7181 3.0834 36.5172 3.56171 35.1718C3.70444 34.6908 3.94406 34.2108 4.18274 33.6344C4.51736 32.8654 4.89877 32.048 5.2816 31.2315L5.32982 31.136C8.6264 23.9765 12.1621 16.6734 15.8416 9.56285L15.9848 9.2739C16.3676 8.55392 16.75 7.78497 17.1318 7.06402C17.5142 6.29508 17.9438 5.57413 18.4698 4.94918C19.4732 3.79721 20.8108 3.17178 22.2925 3.17178C23.7741 3.17178 25.1117 3.79721 26.1151 4.94918C26.6411 5.57557 27.0707 6.29652 27.4531 7.06402C27.8359 7.78497 28.2183 8.55392 28.5997 9.2739L28.7434 9.56285C32.3667 16.703 35.8555 23.9113 39.2078 31.184V31.232C39.5907 32.0019 39.9248 32.8659 40.3072 33.6358C40.5459 34.2113 40.785 34.6913 40.9282 35.1723C41.3096 36.4202 41.4528 37.6221 41.2614 38.8711Z" fill="#AEAEC4"/>
</svg>
