<svg width="227" height="48" viewBox="0 0 227 48" fill="none" xmlns="http://www.w3.org/2000/svg">
<g clip-path="url(#clip0_18_915)">
<path d="M227 21.7156V17.7636H222.042V11.6197L221.876 11.6706L217.219 13.081L217.127 13.1086V17.7638H209.778V15.1705C209.778 13.9629 210.051 13.0388 210.588 12.4225C211.122 11.8136 211.886 11.5041 212.859 11.5041C213.56 11.5041 214.284 11.6673 215.014 11.9893L215.197 12.0701V7.90812L215.111 7.87681C214.43 7.63465 213.505 7.5127 212.357 7.5127C210.911 7.5127 209.597 7.82421 208.452 8.44157C207.305 9.05981 206.403 9.94239 205.772 11.0645C205.142 12.1853 204.822 13.4799 204.822 14.9124V17.7636H201.371V21.7156H204.822V38.3648H209.778V21.7156H217.127V32.2959C217.127 36.6534 219.204 38.8615 223.298 38.8615C223.971 38.8615 224.679 38.7835 225.402 38.6307C226.138 38.4737 226.64 38.317 226.935 38.1496L227 38.1113V34.1228L226.799 34.2548C226.53 34.4321 226.195 34.5771 225.802 34.685C225.408 34.7947 225.078 34.8497 224.823 34.8497C223.864 34.8497 223.154 34.5939 222.714 34.0889C222.269 33.5793 222.043 32.6883 222.043 31.4418V21.7156H227ZM190.304 34.8504C188.505 34.8504 187.087 34.26 186.088 33.097C185.082 31.9281 184.573 30.2616 184.573 28.1443C184.573 25.9598 185.082 24.2501 186.088 23.0606C187.088 21.8789 188.493 21.2791 190.264 21.2791C191.982 21.2791 193.35 21.8519 194.33 22.9826C195.314 24.119 195.814 25.8151 195.814 28.025C195.814 30.2621 195.344 31.9805 194.417 33.13C193.497 34.2708 192.113 34.8504 190.304 34.8504ZM190.524 17.2673C187.093 17.2673 184.367 18.2627 182.424 20.2259C180.482 22.1893 179.497 24.9064 179.497 28.3024C179.497 31.5279 180.458 34.1224 182.354 36.0125C184.25 37.9033 186.83 38.8611 190.023 38.8611C193.349 38.8611 196.02 37.8518 197.963 35.8614C199.905 33.8732 200.889 31.1818 200.889 27.8652C200.889 24.5892 199.966 21.9754 198.144 20.0979C196.321 18.2195 193.757 17.2673 190.524 17.2673ZM171.507 17.2673C169.173 17.2673 167.242 17.8584 165.767 19.0238C164.283 20.1961 163.531 21.7337 163.531 23.5943C163.531 24.5614 163.693 25.4205 164.013 26.1492C164.335 26.8802 164.832 27.5239 165.494 28.0641C166.15 28.6 167.163 29.1612 168.506 29.7323C169.635 30.1921 170.476 30.581 171.011 30.8875C171.534 31.1879 171.904 31.4899 172.114 31.784C172.317 32.0718 172.421 32.4657 172.421 32.9518C172.421 34.3358 171.374 35.0093 169.219 35.0093C168.42 35.0093 167.509 34.8441 166.51 34.5184C165.519 34.1977 164.583 33.7281 163.736 33.1259L163.53 32.9798V37.7029L163.606 37.7377C164.307 38.0581 165.191 38.3283 166.233 38.5409C167.273 38.7537 168.218 38.862 169.039 38.862C171.572 38.862 173.611 38.2681 175.1 37.0957C176.598 35.9153 177.357 34.3415 177.357 32.4166C177.357 31.0279 176.948 29.8371 176.143 28.8767C175.343 27.9241 173.954 27.0496 172.018 26.2766C170.475 25.6635 169.486 25.1547 169.079 24.764C168.685 24.3866 168.486 23.853 168.486 23.1771C168.486 22.578 168.732 22.098 169.238 21.7093C169.748 21.3187 170.457 21.12 171.347 21.12C172.173 21.12 173.017 21.2491 173.857 21.5022C174.697 21.7552 175.434 22.0941 176.05 22.5087L176.252 22.6456V18.1653L176.175 18.1323C175.607 17.8912 174.858 17.6849 173.948 17.5175C173.043 17.3512 172.222 17.2673 171.507 17.2673ZM150.612 34.8504C148.814 34.8504 147.395 34.26 146.396 33.097C145.39 31.9281 144.882 30.2621 144.882 28.1443C144.882 25.9598 145.391 24.2501 146.397 23.0606C147.396 21.8789 148.801 21.2791 150.572 21.2791C152.29 21.2791 153.658 21.8519 154.638 22.9826C155.623 24.119 156.122 25.8151 156.122 28.025C156.122 30.2621 155.652 31.9805 154.725 33.13C153.805 34.2708 152.422 34.8504 150.612 34.8504ZM150.833 17.2673C147.4 17.2673 144.675 18.2627 142.732 20.2259C140.79 22.1893 139.805 24.9064 139.805 28.3024C139.805 31.5292 140.767 34.1224 142.663 36.0125C144.559 37.9033 147.139 38.8611 150.331 38.8611C153.657 38.8611 156.329 37.8518 158.271 35.8614C160.213 33.8732 161.197 31.1818 161.197 27.8652C161.197 24.5892 160.274 21.9754 158.451 20.0979C156.628 18.2195 154.065 17.2673 150.833 17.2673ZM132.283 21.3313V17.7636H127.388V38.3644H132.283V27.8263C132.283 26.0344 132.693 24.5623 133.503 23.4504C134.303 22.3517 135.368 21.795 136.669 21.795C137.11 21.795 137.605 21.8669 138.141 22.0093C138.671 22.1509 139.056 22.3045 139.282 22.4663L139.488 22.6139V17.7284L139.409 17.6947C138.953 17.503 138.308 17.4062 137.492 17.4062C136.262 17.4062 135.161 17.7975 134.218 18.5679C133.39 19.2451 132.792 20.1735 132.335 21.3313H132.283ZM118.621 17.2673C116.376 17.2673 114.373 17.7441 112.669 18.6838C110.961 19.6257 109.641 20.9705 108.743 22.6804C107.848 24.3862 107.394 26.3787 107.394 28.6008C107.394 30.5473 107.835 32.3335 108.705 33.9078C109.575 35.4847 110.808 36.7184 112.368 37.574C113.926 38.4285 115.726 38.8618 117.719 38.8618C120.046 38.8618 122.032 38.4013 123.624 37.4933L123.689 37.4568V33.0172L123.483 33.1659C122.762 33.6861 121.955 34.1013 121.088 34.4004C120.223 34.6993 119.434 34.8504 118.742 34.8504C116.822 34.8504 115.28 34.2554 114.16 33.0824C113.039 31.9079 112.47 30.2586 112.47 28.1832C112.47 26.0948 113.063 24.4032 114.232 23.1549C115.397 21.9104 116.942 21.2791 118.823 21.2791C120.432 21.2791 122 21.8185 123.483 22.8836L123.689 23.0313V18.3534L123.622 18.3164C123.064 18.0071 122.303 17.7517 121.358 17.558C120.417 17.3647 119.496 17.2673 118.621 17.2673ZM104.023 17.7638H99.1278V38.3644H104.023V17.7638ZM101.625 8.98786C100.82 8.98786 100.117 9.25937 99.5397 9.79739C98.96 10.3369 98.666 11.0163 98.666 11.818C98.666 12.6071 98.9565 13.274 99.5307 13.7992C100.101 14.3229 100.806 14.5883 101.626 14.5883C102.445 14.5883 103.152 14.3229 103.73 13.8001C104.311 13.274 104.605 12.6073 104.605 11.818C104.605 11.0443 104.319 10.3719 103.754 9.81913C103.189 9.26741 102.473 8.98786 101.625 8.98786ZM89.4118 16.2439V38.3644H94.4075V9.61849H87.4933L78.7049 30.9701L70.1762 9.61849H62.9805V38.3642H67.6751V16.2417H67.8363L76.8423 38.3644H80.3852L89.2506 16.2439H89.4118Z" fill="#AEAEC4"/>
<path d="M23.0279 22.8092H0V0.0126953H23.0279V22.8092Z" fill="#AEAEC4"/>
<path d="M48.4533 22.8092H25.4258V0.0126953H48.4533V22.8092Z" fill="#AEAEC4"/>
<path d="M23.0273 47.9877H0V25.1914H23.0273V47.9877Z" fill="#AEAEC4"/>
<path d="M48.4533 47.9877H25.4258V25.1914H48.4533V47.9877Z" fill="#AEAEC4"/>
</g>
<defs>
<clipPath id="clip0_18_915">
<rect width="227" height="48" fill="white"/>
</clipPath>
</defs>
</svg>
