<svg width="138" height="48" viewBox="0 0 138 48" fill="none" xmlns="http://www.w3.org/2000/svg">
<g clip-path="url(#clip0_18_907)">
<path d="M21.3398 23.3244H27.2744V31.782C25.4227 32.3857 23.0846 32.7167 20.6542 32.7167C10.8043 32.7167 5.01518 24.1582 5.01518 15.7997C5.01518 7.60176 10.2516 1.8514 17.557 1.8514C22.1798 1.8514 24.8696 3.44044 27.2761 5.65392V8.4133L31.7883 3.83491C28.9343 1.87568 24.8016 0.0136719 18.8946 0.0136719C5.92723 0.0136719 0 9.42676 0 17.1625C0 28.1737 7.90425 34.8069 17.8372 34.8069C22.6535 34.8069 26.9298 34.0609 31.8695 32.6663V23.9282C31.8695 23.4814 32.063 23.1748 32.3523 22.9056L33.911 21.324H23.326L21.3398 23.3244Z" fill="#AEAEC4"/>
<path d="M47.9254 11.8301C40.4615 11.8301 35.8369 17.364 35.8369 23.2379C35.8369 28.308 39.5626 34.3276 47.111 34.3276C54.3723 34.3276 58.8274 28.7829 58.8274 22.8061C58.8274 17.2387 54.4736 11.8321 47.9254 11.8321V11.8301ZM46.687 13.4435C51.9494 13.4435 54.2929 20.3999 54.2929 25.3615C54.2929 32.7404 48.8373 32.8862 48.185 32.8862C45.6885 32.8862 43.9436 31.3553 42.6375 29.3472C41.4877 27.4966 40.3639 24.0585 40.3639 20.699C40.3639 17.3526 41.4434 15.7187 43.1423 14.5166C44.5316 13.6155 45.8324 13.4435 46.6852 13.4435H46.687Z" fill="#AEAEC4"/>
<path d="M96.7156 11.8291C90.1968 11.8291 86.6703 16.0168 86.6703 20.6924C86.6703 24.2519 89.1834 28.2676 94.3681 28.2676H95.6798C95.6798 28.2676 95.3226 29.1481 95.3207 29.9988C95.3207 31.2534 95.7647 31.958 96.7079 33.0423C87.7866 33.5938 84.2012 37.2449 84.2012 41.169C84.2012 44.6053 87.4441 47.9872 94.2592 47.9872C102.327 47.9872 106.506 43.4423 106.506 38.9818C106.506 35.8373 104.962 34.1137 101.052 31.1412C99.9028 30.2345 99.6798 29.657 99.6798 28.9784C99.6798 28.0063 100.253 27.3629 100.463 27.1201C100.833 26.7237 101.474 26.2713 101.714 26.0545C103.028 24.9253 104.883 23.2541 104.883 19.9188C104.883 17.6305 103.945 15.662 101.808 13.8186H104.417L106.377 11.8295H96.7156V11.8291ZM94.9174 13.3172C96.1003 13.3172 97.0877 13.7416 98.1305 14.6222C99.2874 15.6803 101.136 18.5238 101.136 22.0422C101.136 25.8391 98.2283 26.8785 96.6548 26.8785C95.8847 26.8785 94.9618 26.6598 94.1804 26.1177C92.4448 24.9756 90.7219 21.9356 90.7219 18.3181C90.7219 15.054 92.6381 13.3172 94.9174 13.3172ZM97.4987 34.4837C97.996 34.4837 98.3536 34.525 98.3536 34.525C98.3536 34.525 99.5273 35.3756 100.347 36.011C102.256 37.5422 103.446 38.7125 103.446 40.7972C103.446 43.6631 100.826 45.9102 96.5828 45.9102C91.9252 45.9102 88.3654 43.7098 88.3654 40.1168C88.3654 37.1404 90.8048 34.5788 97.4987 34.4837Z" fill="#AEAEC4"/>
<path d="M107.789 33.6722H116.738L118.101 32.2889L115.534 31.9636C114.843 31.8776 114.433 31.2719 114.433 30.6849V3.25753C114.433 2.71724 114.68 2.44055 114.86 2.26463L116.474 0.626953H108.843L106.856 2.64227H109.823V31.053C109.823 31.4568 109.698 31.7316 109.429 32.0139L107.789 33.6722Z" fill="#AEAEC4"/>
<path d="M128.864 11.8301C123.867 11.8301 118.559 15.6943 118.559 22.632C118.559 28.3618 122.367 34.3276 129.483 34.3276C131.257 34.3276 132.718 34.096 134.087 33.4585C135.555 32.7724 136.969 31.6581 138 30.2579C136.053 31.2543 134.465 31.9087 132.355 31.9087C128.346 31.9087 124.48 28.9735 123.128 23.5782L137.291 17.7697C136.473 14.8102 134.166 11.8301 128.865 11.8301H128.864ZM127.938 13.4173C130.619 13.4173 132.558 15.6551 132.558 17.4068C132.558 17.9733 132.208 18.2724 131.515 18.5491L122.809 22.1217C122.809 22.1217 122.573 21.0093 122.573 19.8072C122.573 14.7652 126.166 13.4173 127.938 13.4173Z" fill="#AEAEC4"/>
<path d="M73.2516 11.8311C65.7877 11.8311 61.1631 17.3649 61.1631 23.2389C61.1631 28.309 64.8888 34.3286 72.4372 34.3286C79.6984 34.3286 84.1535 28.7839 84.1535 22.8071C84.1535 17.2397 79.7998 11.8331 73.2516 11.8331V11.8311ZM72.0133 13.4445C77.2756 13.4445 79.619 20.4008 79.619 25.3625C79.619 32.7414 74.1635 32.8872 73.5112 32.8872C71.0147 32.8872 69.2698 31.3562 67.9637 29.3482C66.814 27.4976 65.69 24.0595 65.69 20.7C65.69 17.3536 66.7696 15.7196 68.4685 14.5175C69.8577 13.6164 71.1585 13.4445 72.0114 13.4445H72.0133Z" fill="#AEAEC4"/>
</g>
<defs>
<clipPath id="clip0_18_907">
<rect width="138" height="48" fill="white"/>
</clipPath>
</defs>
</svg>
