<svg width="58" height="58" viewBox="0 0 58 58" fill="none" xmlns="http://www.w3.org/2000/svg">
<path d="M42.695 30.0726C42.231 30.0726 41.767 29.8963 41.4141 29.541L37.3856 25.5125C36.6775 24.8068 36.6775 23.6564 37.3856 22.9483C38.0936 22.2402 39.2416 22.2402 39.9497 22.9483L42.6974 25.6936L49.4712 18.9197C50.1793 18.2117 51.3273 18.2117 52.0354 18.9197C52.7435 19.6278 52.7435 20.7758 52.0354 21.4839L43.9806 29.5387C43.623 29.8963 43.159 30.0726 42.695 30.0726Z" fill="#FF6952"/>
<path d="M24.1882 25.3753C29.5269 25.3753 33.8548 21.0474 33.8548 15.7087C33.8548 10.3699 29.5269 6.04199 24.1882 6.04199C18.8494 6.04199 14.5215 10.3699 14.5215 15.7087C14.5215 21.0474 18.8494 25.3753 24.1882 25.3753Z" fill="#FF6952"/>
<path opacity="0.4" d="M29.0003 30.208H19.3337C9.52199 30.208 6.04199 37.3929 6.04199 43.5457C6.04199 49.0484 8.9687 51.958 14.5077 51.958H33.8263C39.3653 51.958 42.292 49.0484 42.292 43.5457C42.292 37.3929 38.812 30.208 29.0003 30.208Z" fill="#FF6952"/>
</svg>
