<svg width="58" height="58" viewBox="0 0 58 58" fill="none" xmlns="http://www.w3.org/2000/svg">
<path opacity="0.4" d="M50.0562 11.7432C46.0807 9.85574 41.8786 9.32891 37.4996 9.86782C32.6494 10.4647 29 14.5925 29 19.479V48.3339C35.7304 43.8486 42.4584 43.5247 49.1888 45.4387C49.9694 45.6611 50.75 45.1005 50.75 44.2885V12.8571C50.75 12.3883 50.4791 11.9437 50.0562 11.7432Z" fill="#FF6952"/>
<path d="M7.94385 11.7432C11.9193 9.85574 16.1214 9.32891 20.5004 9.86782C25.3506 10.4647 29 14.5925 29 19.479V48.3339C22.2696 43.8486 15.5416 43.5247 8.81116 45.4387C8.03057 45.6611 7.25 45.1005 7.25 44.2885V12.8571C7.25 12.3883 7.52093 11.9437 7.94385 11.7432Z" fill="#FF6952"/>
</svg>
