<svg width="58" height="58" viewBox="0 0 58 58" fill="none" xmlns="http://www.w3.org/2000/svg">
<path opacity="0.4" d="M25.4594 36.296L14.5313 30.334H14.5V40.3582C14.5 42.045 15.3917 43.6063 16.8199 44.5053C24.9399 49.6118 33.0577 49.6118 41.1777 44.5053C42.606 43.6063 43.4976 42.0474 43.4976 40.3582V30.334H43.4664L32.5383 36.296C30.3343 37.4995 27.6658 37.4995 25.4594 36.296Z" fill="#FF6952"/>
<path d="M46.5205 25.7881V38.6665C46.5205 39.667 47.3325 40.479 48.333 40.479C49.3335 40.479 50.1455 39.667 50.1455 38.6665V25.7881H46.5205Z" fill="#FF6952"/>
<path d="M48.18 19.1039L32.5419 10.5706C30.3354 9.36709 27.6671 9.36709 25.4582 10.5706L9.82012 19.1039C6.39329 20.9719 6.39329 25.8923 9.82012 27.7628L25.4582 36.2961C27.6647 37.4996 30.333 37.4996 32.5419 36.2961L48.18 27.7628C49.0693 27.277 49.717 26.5809 50.1447 25.7907C51.3627 23.5359 50.7151 20.4862 48.18 19.1039Z" fill="#FF6952"/>
</svg>
