<svg width="58" height="58" viewBox="0 0 58 58" fill="none" xmlns="http://www.w3.org/2000/svg">
<path opacity="0.4" d="M14.0002 40.0681C10.8271 33.7365 10.6409 22.9098 20.9384 17.3756C25.2739 15.0556 29.6601 14.5964 34.9647 12.7839C38.7927 11.4547 41.045 8.79649 41.9657 7.46733C42.1832 7.12899 42.669 7.20144 42.7898 7.56394C44.4863 12.1314 51.2941 33.2772 37.1445 43.4272C29.9984 48.5505 21.3008 45.5298 17.642 43.8381C17.642 43.8381 15.6411 42.9198 14.0002 40.0681Z" fill="#FF6952"/>
<path d="M15.2103 52.5624C15.0871 52.5624 14.9614 52.5504 14.8357 52.5238C13.8569 52.3184 13.2311 51.3589 13.4365 50.3801C13.5742 49.7252 16.9818 34.1957 33.1324 22.0737C33.9323 21.4744 35.0705 21.6363 35.6698 22.4362C36.2716 23.2362 36.1097 24.372 35.3098 24.9737C20.3023 36.2402 17.0156 50.9819 16.9842 51.1293C16.8029 51.9775 16.0489 52.5624 15.2103 52.5624Z" fill="#FF6952"/>
</svg>
