<svg width="58" height="58" viewBox="0 0 58 58" fill="none" xmlns="http://www.w3.org/2000/svg">
<path d="M49.6142 32.8911C49.6142 32.8911 50.75 34.5339 50.75 37.1922C50.75 41.6631 47.4149 45.3366 43.0891 45.8683C42.0741 48.9133 39.8508 50.75 36.25 50.75C33.8333 50.75 30.8125 48.8895 30.8125 45.6028V41.0833C30.8125 37.4825 34.5583 35.5006 34.6549 35.4523C35.5491 34.9931 35.9118 33.9056 35.4526 33.0115C35.0176 32.1173 33.9301 31.7552 33.0359 32.2144C32.9151 32.2627 31.9483 32.7699 30.8125 33.7366V29C30.8125 25.3992 34.5583 23.4173 34.6549 23.369C35.5491 22.9098 35.9118 21.8223 35.4526 20.9281C35.0176 20.034 33.9301 19.6719 33.0359 20.131C32.9151 20.1794 31.9483 20.6866 30.8125 21.6532V11.0685C30.8125 8.12019 32.7458 7.25 33.8333 7.25C39.2225 7.25 40.8175 12.6391 40.8175 12.6391C40.8175 12.6391 45.9167 14.5002 45.9167 20.1068C45.9167 20.7835 45.8442 21.4361 45.6751 22.0403C48.6234 22.9586 50.75 25.7375 50.75 29.0242C50.75 30.4742 49.6142 32.8911 49.6142 32.8911Z" fill="#FF6952"/>
<path opacity="0.4" d="M22.5474 20.9281C22.1124 21.8223 22.4509 22.9098 23.3451 23.369C23.3934 23.3931 27.1875 25.375 27.1875 29V33.7366C26.0517 32.7699 25.0849 32.2627 24.9641 32.2144C24.0941 31.7552 23.0066 32.1173 22.5474 33.0115C22.1124 33.9056 22.4509 34.9931 23.3451 35.4523C23.3934 35.4765 27.1875 37.4583 27.1875 41.0833V45.6028C27.1875 48.8895 24.1667 50.75 21.75 50.75C18.1492 50.75 15.9259 48.9133 14.9109 45.8683C10.5851 45.3366 7.25 41.6631 7.25 37.1922C7.25 34.5339 8.38576 32.8911 8.38576 32.8911C8.38576 32.8911 7.25 30.4742 7.25 29.0242C7.25 25.7375 9.37661 22.9586 12.3249 22.0403C12.1558 21.4361 12.0833 20.7835 12.0833 20.1068C12.0833 14.5002 17.1825 12.6391 17.1825 12.6391C17.1825 12.6391 18.7775 7.25 24.1667 7.25C25.2542 7.25 27.1875 8.12019 27.1875 11.0685V21.6532C26.0517 20.6866 25.0849 20.1794 24.9641 20.131C24.0941 19.6719 23.0066 20.034 22.5474 20.9281Z" fill="#FF6952"/>
</svg>
