<svg width="103" height="153" viewBox="0 0 103 153" fill="none" xmlns="http://www.w3.org/2000/svg">
<path d="M51.2664 152.769C41.6814 152.769 33.0194 150.462 25.2804 145.846C17.5414 141.16 11.3999 134.948 6.85591 127.209C2.38291 119.47 0.146406 110.985 0.146406 101.755H26.1324C26.1324 106.37 27.2684 110.595 29.5404 114.429C31.8124 118.192 34.8299 121.209 38.5929 123.481C42.4269 125.682 46.6514 126.783 51.2664 126.783C55.8814 126.783 60.0704 125.682 63.8334 123.481C67.5964 121.209 70.6139 118.192 72.8859 114.429C75.1579 110.595 76.2939 106.37 76.2939 101.755C76.2939 97.1405 75.2999 92.916 73.3119 89.082C71.3949 85.177 68.2354 82.0885 63.8334 79.8165C59.5024 77.4735 53.7514 76.302 46.5804 76.302H8.24041L24.0024 0.89999H97.2744V26.886H45.0894L40.2969 50.316L50.8404 50.4225C60.9224 50.7775 69.8329 53.227 77.5719 57.771C85.3109 62.315 91.3459 68.421 95.6769 76.089C100.079 83.686 102.28 92.2415 102.28 101.755C102.28 108.713 100.966 115.281 98.3394 121.458C95.7124 127.635 92.0559 133.066 87.3699 137.752C82.6839 142.438 77.2524 146.13 71.0754 148.828C64.9694 151.456 58.3664 152.769 51.2664 152.769Z" fill="#FF6952" fill-opacity="0.2"/>
</svg>
