<svg width="50" height="50" viewBox="0 0 50 50" fill="none" xmlns="http://www.w3.org/2000/svg">
<path opacity="0.4" d="M43.7503 43.75H9.37533C6.16283 43.75 4.16699 41.7542 4.16699 38.5417V8.33333C4.16699 7.18333 5.10033 6.25 6.25033 6.25C7.40033 6.25 8.33366 7.18333 8.33366 8.33333V38.5417C8.33366 39.4771 8.43991 39.5833 9.37533 39.5833H43.7503C44.9003 39.5833 45.8337 40.5167 45.8337 41.6667C45.8337 42.8167 44.9003 43.75 43.7503 43.75Z" fill="white"/>
<path d="M27.083 35.4167C25.933 35.4167 24.9997 34.4833 24.9997 33.3333V25C24.9997 23.85 25.933 22.9167 27.083 22.9167C28.233 22.9167 29.1663 23.85 29.1663 25V33.3333C29.1663 34.4833 28.233 35.4167 27.083 35.4167ZM39.583 33.3333V20.8333C39.583 19.6833 38.6497 18.75 37.4997 18.75C36.3497 18.75 35.4163 19.6833 35.4163 20.8333V33.3333C35.4163 34.4833 36.3497 35.4167 37.4997 35.4167C38.6497 35.4167 39.583 34.4833 39.583 33.3333ZM18.7497 33.3333V29.1667C18.7497 28.0167 17.8163 27.0833 16.6663 27.0833C15.5163 27.0833 14.583 28.0167 14.583 29.1667V33.3333C14.583 34.4833 15.5163 35.4167 16.6663 35.4167C17.8163 35.4167 18.7497 34.4833 18.7497 33.3333Z" fill="white"/>
<path d="M39.4231 7.53759C39.2127 7.02925 38.8064 6.62297 38.296 6.41047C38.0418 6.30422 37.771 6.25 37.5002 6.25H31.2502C30.1002 6.25 29.1669 7.18333 29.1669 8.33333C29.1669 9.48333 30.1002 10.4167 31.2502 10.4167H32.471L28.4752 14.4124C28.2752 14.6104 27.9273 14.6124 27.7231 14.4124L25.3273 12.0166C23.4961 10.1832 20.5127 10.1832 18.6835 12.0166L15.1939 15.5062C14.3794 16.3208 14.3794 17.6376 15.1939 18.4522C15.6002 18.8584 16.1335 19.0626 16.6669 19.0626C17.2002 19.0626 17.7335 18.8584 18.1398 18.4522L21.6293 14.9625C21.8335 14.7583 22.1794 14.7583 22.3815 14.9625L24.7773 17.3584C26.6085 19.1896 29.5898 19.1896 31.421 17.3584L35.4169 13.3624V14.5833C35.4169 15.7333 36.3502 16.6667 37.5002 16.6667C38.6502 16.6667 39.5835 15.7333 39.5835 14.5833V8.33333C39.5835 8.0625 39.5273 7.79175 39.4231 7.53759Z" fill="white"/>
</svg>
