<svg width="14" height="10" viewBox="0 0 14 10" fill="none" xmlns="http://www.w3.org/2000/svg">
<path d="M13.707 1.60836C13.6279 1.31057 13.472 1.03875 13.255 0.820094C13.0379 0.601436 12.7672 0.443597 12.47 0.362359C11.379 0.0683593 7 0.0683594 7 0.0683594C7 0.0683594 2.622 0.0683593 1.53 0.362359C1.23279 0.443811 0.962098 0.601705 0.74489 0.820316C0.527683 1.03893 0.371536 1.31063 0.292 1.60836C0 2.70736 0 5.00036 0 5.00036C0 5.00036 0 7.29336 0.292 8.39236C0.371321 8.69009 0.527412 8.96178 0.744666 9.18026C0.96192 9.39874 1.23272 9.55636 1.53 9.63736C2.622 9.93236 7 9.93236 7 9.93236C7 9.93236 11.378 9.93236 12.469 9.63736C12.7663 9.55667 13.0372 9.39914 13.2543 9.18059C13.4714 8.96205 13.6272 8.6902 13.706 8.39236C14 7.29336 14 5.00036 14 5.00036C14 5.00036 14 2.70736 13.707 1.60836ZM5.568 7.08236V2.91836L9.228 5.00036L5.568 7.08236Z" fill="white"/>
</svg>
