<svg width="452" height="366" viewBox="0 0 452 366" fill="none" xmlns="http://www.w3.org/2000/svg">
<g clip-path="url(#clip0_35_208)">
<path d="M428.529 67.3331C428.529 67.3331 424.059 52.0498 403.349 50.762C395.217 50.3631 389.424 48.8131 385.307 46.8984L365.098 83.9953L359.921 94.7654C363.624 95.7102 367.416 96.2641 371.234 96.418C400.6 97.5576 405.105 118.722 405.105 118.722C407.055 100.316 428.529 67.3331 428.529 67.3331Z" fill="#FFA22E"/>
<path d="M369.067 76.6103L365.098 83.9955L359.921 94.7656C363.624 95.7104 367.416 96.2643 371.234 96.4181C400.6 97.5578 405.105 118.722 405.105 118.722C405.915 111.28 409.918 101.444 414.388 92.3722C406.667 85.8646 388.934 73.3508 369.067 76.6103Z" fill="#007453"/>
<path d="M421.082 79.6991C419.201 75.0719 411.161 60.5751 385.022 63.7434L376.024 63.8916L368.6 77.4881C382.559 79.4483 411.685 85.067 411.719 97.9227C414.65 91.4151 418.083 84.9758 421.082 79.6991Z" fill="white"/>
<path style="mix-blend-mode:multiply" d="M400.053 109.114C400.84 105.501 387.303 96.3265 382.342 90.8788C377.381 85.431 392.959 73.6694 401.729 73.7834C410.499 73.8974 397.84 68.2787 395.252 61.7255C393.609 57.5998 398.958 53.3374 403.143 50.7389C395.103 50.3286 389.367 48.79 385.284 46.8867L365.098 83.995L359.921 94.7651C363.624 95.7099 367.416 96.2638 371.234 96.4176C386.858 97.0445 395.445 103.358 400.053 109.114Z" fill="url(#paint0_linear_35_208)"/>
<path d="M374.348 92.1332C374.348 92.1332 367.402 89.5803 359.784 94.9254C364.779 84.6682 365.555 82.8789 365.555 82.8789C365.555 82.8789 374.952 87.8593 374.348 92.1332Z" fill="#1C1C1B"/>
<path d="M374.359 92.1099V92.0187L374.439 91.8705L374.575 91.5856L374.895 90.9474L374.986 90.7764V90.7081L378.806 83.0493C379.947 80.77 381.201 78.2285 382.604 75.4362L384.474 71.698C388.683 63.3099 393.598 53.463 398.228 44.4822C398.582 43.7984 398.924 43.1146 399.277 42.4422C396.369 37.7695 391.1 35.0114 384.725 33.7806C383.349 33.5128 381.96 33.3188 380.563 33.1993C377.976 32.9738 375.377 32.9319 372.785 33.0739C372.021 33.0739 371.257 33.1651 370.504 33.2335C370.048 33.2335 369.592 33.3247 369.147 33.3475C368.246 33.4158 367.379 33.4614 366.524 33.4842C364.151 33.5546 361.777 33.4518 359.419 33.1765C345.905 31.5468 339.028 24.2186 335.972 19.5914C335.641 19.09 335.356 18.6227 335.116 18.201C334.877 17.7793 334.66 17.3918 334.501 17.0613C334.09 16.2293 333.907 15.7393 333.907 15.7393C333.907 16.0584 333.907 16.4003 333.907 16.7422C333.907 16.8448 333.907 16.9587 333.907 17.0613C333.907 17.1639 333.907 17.5514 333.907 17.7907C333.907 18.03 333.907 18.0414 333.907 18.1668C333.907 18.2922 333.907 18.6569 333.907 18.9076C333.907 19.1583 333.907 19.1355 333.907 19.2495C333.907 19.58 333.907 19.9219 333.828 20.2638V20.3436C333.828 20.7197 333.748 21.0958 333.714 21.4833C333.714 21.6087 333.714 21.7226 333.714 21.8366L333.611 22.6458L333.543 23.0675C333.543 23.3296 333.474 23.5917 333.429 23.8653L333.36 24.2527C333.36 24.5946 333.246 24.9366 333.189 25.2899C333.183 25.3429 333.183 25.3964 333.189 25.4494C333.109 25.8483 333.041 26.2472 332.961 26.6575C332.961 26.7829 332.961 26.9082 332.881 27.0336C332.801 27.159 332.767 27.6034 332.699 27.8997C332.63 28.1961 332.642 28.1961 332.607 28.3328C332.573 28.4696 332.482 28.9027 332.425 29.1876C332.368 29.4725 332.356 29.4611 332.334 29.5979C332.254 29.9512 332.163 30.2931 332.083 30.6464C332.083 30.7148 332.083 30.7832 332.083 30.8629C331.98 31.2732 331.877 31.6949 331.763 32.128C331.763 32.242 331.706 32.3673 331.672 32.4813L331.433 33.4044C331.433 33.5526 331.353 33.7008 331.307 33.8489L331.068 34.7265C331.068 34.8747 330.999 35.0114 330.954 35.1482C330.851 35.5015 330.76 35.8548 330.657 36.2081L330.589 36.436L330.212 37.7353L330.11 38.043C330.019 38.3735 329.916 38.704 329.813 39.0231C329.711 39.3422 329.722 39.308 329.688 39.4448C329.585 39.7525 329.494 40.0488 329.403 40.3566L329.266 40.7554C329.159 41.1125 329.045 41.4659 328.924 41.8154L328.855 42.0319C328.718 42.465 328.57 42.8981 328.433 43.3312C328.402 43.4053 328.375 43.4814 328.354 43.5591C328.228 43.9124 328.114 44.2657 328 44.6076C328 44.733 327.909 44.8583 327.875 44.9723L327.544 45.9182L327.43 46.2601C327.293 46.6248 327.168 46.9782 327.042 47.3429L326.985 47.5024C326.825 47.9241 326.677 48.3572 326.517 48.7789V48.87L326.107 50.0097L326.004 50.2719C325.879 50.6024 325.765 50.9329 325.639 51.252C325.604 51.3375 325.573 51.425 325.548 51.5141C325.4 51.8788 325.263 52.2435 325.126 52.6538V52.7336C324.818 53.5428 324.51 54.3406 324.202 55.1155L324.145 55.2523C324.02 55.5942 323.883 55.9247 323.746 56.2552V56.4148C323.598 56.7795 323.461 57.1442 323.313 57.5545C322.172 60.2555 321.203 62.6603 320.359 64.6092C319.013 67.6863 318.078 69.6466 317.976 69.9087C318.736 71.4389 319.703 72.8577 320.85 74.1256L321.408 74.741L321.705 75.0487L322.355 75.6983C322.8 76.12 323.29 76.5531 323.815 76.9862C324.339 77.4193 324.624 77.6244 325.069 77.9435L325.514 78.2626L326.46 78.8781C326.951 79.1858 327.464 79.4707 328 79.7556C328.536 80.0406 328.73 80.1317 329.14 80.3141C334.176 82.5619 339.709 83.4613 345.198 82.924C350.708 82.312 356.282 82.6007 361.7 83.7787L362.384 83.9497C363.046 84.1207 363.673 84.3144 364.277 84.5195C366.009 85.0866 367.67 85.8514 369.227 86.7989C369.84 87.1741 370.43 87.5851 370.994 88.0298C371.302 88.2805 371.599 88.5199 371.861 88.7592C372.123 88.9985 372.203 89.0783 372.352 89.2379C373.036 89.9662 373.626 90.778 374.108 91.654L374.222 91.8591C374.27 91.9514 374.312 92.0465 374.347 92.1441L374.359 92.1099Z" fill="#FFA22E"/>
<path d="M362.122 83.7791C362.784 83.95 363.411 84.1438 364.015 84.3489C365.747 84.916 367.408 85.6808 368.965 86.6283C369.578 87.0034 370.168 87.4144 370.732 87.8592C371.04 88.1099 371.337 88.3492 371.599 88.5886C371.861 88.8279 371.941 88.9077 372.09 89.0672C372.879 89.8321 373.558 90.7028 374.108 91.6543L374.222 91.8595C374.27 91.9517 374.312 92.0469 374.348 92.1444V92.0532L374.427 91.9051L374.564 91.6201L374.884 90.9819L374.975 90.811V90.7426L378.795 83.0839C379.936 80.8045 381.19 78.263 382.593 75.4707L384.463 71.7326L386.277 68.1311L361.677 60.1875L353.694 82.5368C356.319 82.6487 358.927 83.0074 361.483 83.6081L362.122 83.7791Z" fill="#008000"/>
<path d="M297.938 129.97C297.673 129.839 297.463 129.619 297.346 129.347C297.229 129.075 297.212 128.771 297.3 128.488L333.155 12.2401C333.202 12.0852 333.279 11.9412 333.382 11.8164C333.485 11.6916 333.612 11.5885 333.755 11.5132C333.898 11.4379 334.055 11.3918 334.217 11.3777C334.378 11.3636 334.54 11.3817 334.694 11.4309C335.006 11.5282 335.267 11.7441 335.421 12.032C335.574 12.3199 335.608 12.6567 335.516 12.9695L299.66 129.263C299.561 129.576 299.342 129.836 299.052 129.99C298.762 130.143 298.424 130.177 298.109 130.084L297.938 129.97Z" fill="#590302"/>
<path opacity="0.52" d="M297.938 129.97C297.673 129.839 297.463 129.619 297.346 129.347C297.229 129.075 297.212 128.771 297.3 128.488L333.155 12.2401C333.202 12.0852 333.279 11.9412 333.382 11.8164C333.485 11.6916 333.612 11.5885 333.755 11.5132C333.898 11.4379 334.055 11.3918 334.217 11.3777C334.378 11.3636 334.54 11.3817 334.694 11.4309C335.006 11.5282 335.267 11.7441 335.421 12.032C335.574 12.3199 335.608 12.6567 335.516 12.9695L299.66 129.263C299.561 129.576 299.342 129.836 299.052 129.99C298.762 130.143 298.424 130.177 298.109 130.084L297.938 129.97Z" fill="#1C1C1B"/>
<path d="M333.075 12.9355C333.386 13.0326 333.646 13.2492 333.798 13.5376C333.95 13.826 333.981 14.1628 333.885 14.4741L298.235 130.061H298.109L297.938 129.993C297.673 129.863 297.463 129.642 297.346 129.37C297.229 129.098 297.212 128.794 297.3 128.511L332.95 12.9355H333.075Z" fill="#843836"/>
<path d="M326.415 48.6755V48.7666L326.004 49.9063L325.902 50.1685C325.776 50.499 325.662 50.8295 325.537 51.1486C325.501 51.2341 325.471 51.3216 325.446 51.4107C325.297 51.7754 325.16 52.1401 325.024 52.5504V52.6302C324.716 53.4394 324.408 54.2372 324.1 55.0121L324.043 55.1489C323.917 55.4908 323.78 55.8213 323.644 56.1518V56.3114C323.495 56.6761 323.359 57.0408 323.21 57.4511C322.07 60.1521 321.1 62.5569 320.257 64.5057C318.911 67.5829 317.976 69.5432 317.873 69.8053C318.634 71.3355 319.601 72.7543 320.747 74.0222L321.306 74.6376L321.602 74.9453L322.252 75.5949C322.697 76.0166 323.187 76.4497 323.712 76.8828C324.237 77.3159 324.522 77.521 324.967 77.8401L325.411 78.1592L326.358 78.7747C326.848 79.0824 327.361 79.3673 327.897 79.6522C328.433 79.9372 328.627 80.0283 329.038 80.2107C334.073 82.4585 339.607 83.3579 345.095 82.8206C350.606 82.2086 356.18 82.4973 361.597 83.6753L362.282 83.8463C362.943 84.0172 363.57 84.211 364.175 84.4161C365.907 84.9832 367.568 85.748 369.124 86.6955C369.737 87.0706 370.327 87.4817 370.892 87.9264C371.2 88.1771 371.496 88.4164 371.759 88.6558C372.021 88.8951 372.101 88.9749 372.249 89.1344C372.977 89.8884 373.602 90.7353 374.108 91.6532L374.222 91.8583C374.27 91.9505 374.312 92.0457 374.347 92.1432V92.0521L374.427 91.9039L374.564 91.619L374.883 90.9808L374.975 90.8098V90.7414L378.795 83.0827C379.936 80.8033 381.19 78.2618 382.593 75.4696L384.463 71.7314L386.379 67.9248L326.346 48.6641L326.415 48.6755Z" fill="#007453"/>
<path d="M383.802 73.2014L384.554 71.6856L392.629 55.6502C392.629 55.6502 382.205 43.9798 362.818 47.2051C337.135 51.4904 330.042 38.0078 330.042 38.0078L329.768 38.8854C329.768 39.0335 329.677 39.1703 329.643 39.3071C329.54 39.6148 329.449 39.9111 329.357 40.2188L329.221 40.6177C329.114 40.9748 329 41.3281 328.878 41.6776L328.81 41.8942C328.673 42.3272 328.525 42.7603 328.388 43.1934C328.356 43.2675 328.33 43.3437 328.308 43.4213C328.183 43.7746 328.069 44.128 327.955 44.4699C327.955 44.5952 327.863 44.7206 327.829 44.8346L327.499 45.7805L327.384 46.1224C327.248 46.4871 327.122 46.8404 326.997 47.2051L326.94 47.3647C326.78 47.7864 326.632 48.2194 326.472 48.6411V48.7323L326.062 49.872L325.959 50.1341C325.833 50.4646 325.719 50.7951 325.594 51.1142C325.558 51.1998 325.528 51.2873 325.503 51.3764C325.354 51.7411 325.218 52.1058 325.081 52.5161V52.5958C324.773 53.405 324.465 54.2028 324.157 54.9778L324.1 55.1146C324.075 55.1962 324.044 55.2761 324.009 55.3539C328.662 60.7446 335.345 66.7508 342.643 67.3776C347.582 67.7993 351.55 65.5769 356.192 64.9273C360.984 64.3827 365.837 64.813 370.459 66.1924C371.257 66.4431 384.486 71.7426 383.802 73.2014Z" fill="white"/>
<path style="mix-blend-mode:multiply" d="M340.522 54.6709C330.851 48.7445 335.96 46.7615 340.294 48.6306C344.628 50.4997 362.51 50.0666 348.357 45.3938C336.884 41.5987 335.151 24.0361 334.9 17.517C334.603 16.9586 334.387 16.5027 334.238 16.1836L334.033 16.5483C334.033 35.2962 317.736 69.7376 317.736 69.7376C317.736 69.7376 322.743 80.918 337.945 82.6389C350.433 81.8753 363.103 75.4133 358.324 75.7438C351.641 76.1997 337.352 71.6409 329.483 66.9796C321.614 62.3182 365.064 62.7627 368.315 60.3238C371.565 57.8848 350.193 60.5973 340.522 54.6709Z" fill="url(#paint1_linear_35_208)"/>
<path d="M39.1846 67.3331C39.1846 67.3331 43.6551 52.0498 64.3654 50.762C72.4967 50.3631 78.2901 48.8131 82.4071 46.8984L102.673 83.9953L107.85 94.7654C104.147 95.7094 100.355 96.2633 96.537 96.418C67.1708 97.5576 62.6547 118.722 62.6547 118.722C60.659 100.316 39.1846 67.3331 39.1846 67.3331Z" fill="#FFA22E"/>
<path d="M98.6363 76.6103L102.673 83.9955L107.851 94.7656C104.148 95.7096 100.356 96.2634 96.5378 96.4181C67.1716 97.5578 62.6555 118.722 62.6555 118.722C61.8458 111.28 57.8543 101.444 53.3838 92.3722C61.0475 85.8646 78.7699 73.3508 98.6363 76.6103Z" fill="#007453"/>
<path d="M46.6318 79.6991C48.5021 75.0719 56.5422 60.5751 82.681 63.7434L91.679 63.8916L99.1147 77.4881C85.1443 79.4483 56.029 85.067 55.9948 97.9227C53.0639 91.4151 49.6312 84.9758 46.6318 79.6991Z" fill="white"/>
<path style="mix-blend-mode:multiply" d="M67.6615 109.114C66.8632 105.501 80.4001 96.3265 85.3724 90.8788C90.3447 85.431 74.755 73.6694 65.985 73.7834C57.2151 73.8974 69.8625 68.2787 72.4627 61.7255C74.0935 57.5998 68.7563 53.3374 64.5595 50.7389C72.5425 50.3286 78.3473 48.79 82.4301 46.8867L102.696 83.9836L107.873 94.7537C104.17 95.6977 100.379 96.2515 96.5601 96.4062C80.8563 97.0445 72.2574 103.358 67.6615 109.114Z" fill="url(#paint2_linear_35_208)"/>
<path d="M93.356 92.1332C93.356 92.1332 100.313 89.5803 107.931 94.9254C102.924 84.6682 102.16 82.8789 102.16 82.8789C102.16 82.8789 92.7516 87.8593 93.356 92.1332Z" fill="#1C1C1B"/>
<path d="M93.3443 92.1099V92.0187L93.2759 91.8705C93.2759 91.7908 93.1846 91.6996 93.1276 91.5856C93.0706 91.4716 92.9337 91.1981 92.8083 90.9474L92.7285 90.7764V90.7081L88.908 83.0493L85.1103 75.4362C84.5059 74.2281 83.8787 72.9745 83.2286 71.698C79.0318 63.3099 74.1051 53.463 69.475 44.4822L68.4258 42.4422C71.3339 37.7695 76.5913 35.0114 82.9663 33.7806C84.3428 33.5144 85.7322 33.3204 87.1289 33.1993C89.7191 32.9739 92.322 32.932 94.9181 33.0739C95.6708 33.0739 96.4463 33.1651 97.199 33.2335C97.6551 33.2335 98.1113 33.3247 98.5561 33.3475C99.4456 33.4158 100.324 33.4614 101.168 33.4842C103.544 33.5548 105.923 33.452 108.284 33.1765C121.798 31.5468 128.675 24.2186 131.731 19.5914C132.062 19.09 132.347 18.6227 132.587 18.201C132.826 17.7793 133.031 17.3918 133.202 17.0613C133.613 16.2293 133.796 15.7393 133.796 15.7393C133.796 16.0584 133.796 16.4003 133.796 16.7422V17.0613C133.796 17.3006 133.796 17.5514 133.796 17.7907C133.796 18.03 133.796 18.0414 133.796 18.1668C133.796 18.2922 133.796 18.6569 133.796 18.9076C133.796 19.1583 133.796 19.1355 133.796 19.2495C133.796 19.58 133.796 19.9219 133.875 20.2638V20.3436C133.875 20.7197 133.955 21.0958 134.001 21.4833C134.001 21.6087 134.001 21.7226 134.001 21.8366L134.103 22.6458C134.103 22.7825 134.103 22.9193 134.16 23.0675C134.217 23.2156 134.24 23.5917 134.286 23.8653C134.332 24.1388 134.286 24.1274 134.343 24.2527C134.4 24.5946 134.457 24.9366 134.525 25.2899C134.521 25.3429 134.521 25.3963 134.525 25.4494C134.594 25.8483 134.674 26.2472 134.753 26.6575C134.753 26.7829 134.753 26.9082 134.833 27.0336L135.004 27.8997C135.004 28.0479 135.073 28.1961 135.096 28.3328C135.118 28.4696 135.221 28.9027 135.289 29.1876C135.358 29.4725 135.347 29.4611 135.381 29.5979C135.461 29.9512 135.54 30.2931 135.632 30.6464C135.627 30.7185 135.627 30.7908 135.632 30.8629L135.94 32.128L136.042 32.4813L136.282 33.4044C136.282 33.5526 136.362 33.7008 136.396 33.8489L136.635 34.7265C136.635 34.8747 136.715 35.0114 136.749 35.1482L137.057 36.2081L137.126 36.436C137.24 36.8691 137.376 37.3022 137.502 37.7353C137.538 37.8362 137.568 37.9389 137.593 38.043L137.901 39.0231C137.901 39.1713 137.981 39.308 138.027 39.4448C138.118 39.7525 138.22 40.0488 138.312 40.3566L138.437 40.7554L138.779 41.8154L138.848 42.0319C138.996 42.465 139.133 42.8981 139.281 43.3312C139.281 43.4109 139.281 43.4793 139.361 43.5591C139.475 43.9124 139.6 44.2657 139.714 44.6076C139.714 44.733 139.794 44.8583 139.84 44.9723C139.942 45.2914 140.057 45.5991 140.171 45.9182C140.171 46.0322 140.25 46.1462 140.285 46.2601C140.41 46.6248 140.547 46.9782 140.672 47.3429C140.668 47.3959 140.668 47.4493 140.672 47.5024L141.129 48.7789V48.87C141.265 49.2575 141.414 49.6336 141.55 50.0097C141.586 50.0953 141.616 50.1828 141.642 50.2719L142.018 51.252C142.043 51.3411 142.074 51.4286 142.109 51.5141C142.246 51.8788 142.383 52.2435 142.531 52.6538V52.7336C142.839 53.5428 143.158 54.3406 143.455 55.1155C143.459 55.161 143.459 55.2068 143.455 55.2523C143.592 55.5942 143.729 55.9247 143.854 56.2552L143.923 56.4148C144.059 56.7795 144.208 57.1442 144.356 57.5545C145.439 60.2555 146.466 62.6603 147.31 64.6092C148.644 67.6863 149.591 69.6466 149.682 69.9087C148.916 71.4358 147.949 72.8539 146.808 74.1256L146.249 74.741L145.941 75.0487L145.303 75.6983C144.858 76.12 144.367 76.5531 143.843 76.9862C143.318 77.4193 143.022 77.6244 142.588 77.9435L142.132 78.2626C141.836 78.4678 141.516 78.6729 141.186 78.8781C140.855 79.0832 140.193 79.4707 139.646 79.7556C139.292 79.9494 138.916 80.1317 138.506 80.3141C133.47 82.5609 127.937 83.4603 122.448 82.924C116.934 82.3123 111.356 82.601 105.935 83.7787L105.262 83.9497C104.6 84.1207 103.962 84.3144 103.369 84.5195C101.635 85.0821 99.9736 85.8471 98.4192 86.7989C97.8063 87.1741 97.216 87.5851 96.6516 88.0298C96.3322 88.2805 96.0471 88.5199 95.7848 88.7592C95.5225 88.9985 95.4427 89.0783 95.283 89.2379C94.4938 89.9957 93.8178 90.8632 93.2759 91.8136L93.1618 92.0187L93.025 92.3036L93.3443 92.1099Z" fill="#FFA22E"/>
<path d="M105.593 83.7794C104.931 83.9503 104.293 84.1441 103.7 84.3492C101.966 84.9117 100.305 85.6768 98.7503 86.6286C98.1373 87.0037 97.5471 87.4147 96.9826 87.8595C96.6633 88.1102 96.3782 88.3495 96.1159 88.5889C95.8536 88.8282 95.7737 88.908 95.6141 89.0675C94.8248 89.8254 94.1488 90.6929 93.6069 91.6432L93.4929 91.8484L93.356 92.1333V92.0421L93.2876 91.894C93.2876 91.8142 93.1964 91.723 93.1393 91.609C93.0823 91.4951 92.9455 91.2215 92.82 90.9708L92.7402 90.7999V90.7315L88.9197 83.0728L85.1221 75.4596C84.5177 74.2516 83.8904 72.9979 83.2404 71.7214L81.4385 68.12L106.175 60.2676L114.158 82.6169C111.533 82.7304 108.926 83.0891 106.368 83.6882L105.593 83.7794Z" fill="#008000"/>
<path d="M169.765 129.97C170.032 129.841 170.245 129.621 170.364 129.349C170.483 129.078 170.501 128.772 170.415 128.488L134.559 12.2401C134.463 11.9273 134.245 11.6656 133.956 11.5128C133.666 11.36 133.327 11.3285 133.014 11.4252C132.701 11.5219 132.439 11.739 132.286 12.0286C132.133 12.3182 132.102 12.6567 132.199 12.9695L168.054 129.218C168.151 129.529 168.367 129.79 168.655 129.943C168.944 130.097 169.281 130.131 169.594 130.038L169.765 129.97Z" fill="#590302"/>
<path opacity="0.52" d="M169.765 129.97C170.032 129.841 170.245 129.621 170.364 129.349C170.483 129.078 170.501 128.772 170.415 128.488L134.559 12.2401C134.463 11.9273 134.245 11.6656 133.956 11.5128C133.666 11.36 133.327 11.3285 133.014 11.4252C132.701 11.5219 132.439 11.739 132.286 12.0286C132.133 12.3182 132.102 12.6567 132.199 12.9695L168.054 129.218C168.151 129.529 168.367 129.79 168.655 129.943C168.944 130.097 169.281 130.131 169.594 130.038L169.765 129.97Z" fill="#1C1C1B"/>
<path d="M134.64 12.9359C134.328 13.0332 134.067 13.2491 133.914 13.537C133.76 13.8249 133.726 14.1616 133.819 14.4745L169.48 130.062H169.594L169.765 129.993C170.033 129.865 170.245 129.645 170.365 129.373C170.484 129.101 170.502 128.796 170.415 128.512L134.731 12.9131L134.64 12.9359Z" fill="#843836"/>
<path d="M141.288 48.6758V48.767C141.425 49.1545 141.573 49.5306 141.71 49.9066C141.745 49.9922 141.776 50.0797 141.801 50.1688L142.177 51.1489C142.203 51.238 142.233 51.3255 142.269 51.411C142.405 51.7757 142.542 52.1404 142.691 52.5507V52.6305C142.998 53.4397 143.318 54.2375 143.614 55.0125C143.619 55.0579 143.619 55.1038 143.614 55.1492C143.751 55.4911 143.888 55.8217 144.013 56.1522L144.082 56.3117C144.219 56.6764 144.367 57.0411 144.515 57.4514C145.599 60.1525 146.625 62.5572 147.469 64.5061C148.803 67.5832 149.75 69.5435 149.841 69.8056C149.075 71.3327 148.109 72.7509 146.967 74.0225L146.408 74.6379L146.1 74.9456L145.462 75.5953C145.017 76.017 144.527 76.45 144.002 76.8831C143.477 77.3162 143.181 77.5213 142.748 77.8405L142.291 78.1596C141.995 78.3647 141.676 78.5698 141.345 78.775C141.014 78.9801 140.353 79.3676 139.805 79.6526C139.452 79.8463 139.075 80.0287 138.665 80.211C133.629 82.4578 128.096 83.3572 122.607 82.8209C117.093 82.2093 111.516 82.498 106.094 83.6757L105.421 83.8466C104.76 84.0176 104.121 84.2113 103.528 84.4165C101.794 84.979 100.133 85.744 98.5785 86.6958C97.9655 87.071 97.3753 87.482 96.8108 87.9267C96.4915 88.1774 96.2064 88.4168 95.9441 88.6561C95.6818 88.8954 95.602 88.9752 95.4423 89.1348C94.653 89.8926 93.977 90.7601 93.4351 91.7105L93.3211 91.9156L93.1843 92.2005V92.1094L93.1158 91.9612C93.1158 91.8814 93.0246 91.7903 92.9676 91.6763C92.9106 91.5623 92.7737 91.2888 92.6483 91.0381L92.5684 90.8671V90.7987L88.7479 83.14L84.9503 75.5269C84.3459 74.3188 83.7186 73.0652 83.0686 71.7887C82.4528 70.5464 81.8141 69.27 81.1641 67.9821L141.197 48.7214L141.288 48.6758Z" fill="#007453"/>
<path d="M83.9129 73.2017L83.1488 71.6859C80.6513 66.6941 77.88 61.1894 75.0859 55.6505C75.0859 55.6505 85.5323 44.0257 104.988 47.2852C130.671 51.5704 137.764 38.0879 137.764 38.0879L138.038 38.9655C138.038 39.1136 138.118 39.2504 138.163 39.3871C138.255 39.6949 138.357 39.9912 138.449 40.2989L138.574 40.6978L138.916 41.7577L138.985 41.9742C139.133 42.4073 139.27 42.8404 139.418 43.2735C139.418 43.3533 139.418 43.4216 139.498 43.5014C139.612 43.8547 139.737 44.208 139.851 44.5499C139.851 44.6753 139.931 44.8007 139.977 44.9146C140.079 45.2338 140.193 45.5415 140.307 45.8606C140.307 45.9746 140.387 46.0885 140.421 46.2025C140.547 46.5672 140.684 46.9205 140.809 47.2852C140.804 47.3383 140.804 47.3917 140.809 47.4448L141.265 48.7212V48.8124C141.402 49.1999 141.55 49.576 141.687 49.9521C141.723 50.0376 141.753 50.1251 141.779 50.2142L142.155 51.1943C142.18 51.2834 142.211 51.3709 142.246 51.4564C142.383 51.8211 142.52 52.1858 142.668 52.5961V52.6759C142.976 53.4851 143.295 54.2829 143.592 55.0579C143.596 55.1033 143.596 55.1491 143.592 55.1946C143.627 55.2724 143.658 55.3524 143.683 55.434C139.042 60.8247 132.359 66.8309 125.06 67.4577C120.122 67.8794 116.153 65.657 111.511 65.0074C106.719 64.4621 101.866 64.8924 97.2446 66.2724C96.4577 66.4434 83.183 71.7429 83.9129 73.2017Z" fill="white"/>
<path style="mix-blend-mode:multiply" d="M127.181 54.6709C136.852 48.7445 131.743 46.7615 127.421 48.6306C123.098 50.4997 105.205 50.0666 119.358 45.3938C130.831 41.5987 132.564 24.0361 132.815 17.517C133.112 16.9586 133.328 16.5027 133.465 16.1836L133.682 16.5483C133.682 35.2962 149.979 69.7376 149.979 69.7376C149.979 69.7376 144.972 80.918 129.77 82.6389C117.225 81.8753 104.612 75.4133 109.39 75.7438C116.062 76.1997 130.363 71.6409 138.232 66.9796C146.101 62.3182 102.65 62.7627 99.3889 60.3238C96.1272 57.8848 117.51 60.5973 127.181 54.6709Z" fill="url(#paint3_linear_35_208)"/>
<path d="M352.109 219.014L351.881 208.392H352.908V206.853H351.847L351.516 192.037H352.451V190.487H351.482L351.117 174.167H352.109V172.617H350.969V168.013H352.109V166.645H350.969C350.969 166.645 350.535 162.964 348.836 162.588V159.465H348.346V162.588C346.647 162.93 346.225 166.645 346.225 166.645H345.084V168.013H346.225V172.64H345.084V174.19H346.076L345.711 190.51H344.742V192.06H345.677L345.347 206.876H344.286V208.415H345.312L345.084 219.036H340.522V172.822L337.101 171.922V158.359C337.117 158.16 337.054 157.963 336.926 157.81C336.799 157.656 336.616 157.559 336.417 157.539C336.22 157.562 336.04 157.66 335.915 157.813C335.789 157.966 335.728 158.162 335.744 158.359V165.448H333.908C333.159 165.526 332.471 165.895 331.991 166.474C331.511 167.054 331.278 167.799 331.342 168.548V170.417L330.065 170.075H325.092V165.448C325.092 165.448 329.209 162.029 325.092 160.81C324.888 158.67 324.22 156.6 323.135 154.745C322.05 152.889 320.573 151.291 318.809 150.062V145.219H317.508V150.097C315.742 151.324 314.263 152.921 313.176 154.777C312.089 156.633 311.419 158.703 311.213 160.844L311.031 160.912V154.45C316.516 137.446 308.031 128.237 300.436 123.565C296.61 120.935 293.748 117.129 292.282 112.726L291.575 100.532H290.149L289.442 112.726C287.977 117.129 285.114 120.935 281.288 123.565C279.697 124.533 278.197 125.643 276.806 126.881C276.715 126.961 276.624 127.063 276.521 127.143L275.985 127.656C275.791 127.838 275.609 128.032 275.426 128.215C275.244 128.397 275.073 128.579 274.902 128.773L274.377 129.377L273.875 129.97C273.704 130.175 273.545 130.403 273.374 130.619C273.203 130.836 273.066 131.03 272.918 131.246C272.769 131.463 272.61 131.713 272.461 131.953C272.313 132.192 272.176 132.397 272.039 132.625C271.902 132.853 271.754 133.127 271.617 133.377C271.481 133.628 271.355 133.845 271.241 134.095C271.127 134.346 270.99 134.631 270.865 134.905C270.739 135.178 270.648 135.395 270.545 135.657C270.443 135.919 270.329 136.238 270.226 136.523C270.123 136.808 270.032 137.047 269.952 137.321C269.873 137.594 269.781 137.936 269.701 138.244C269.622 138.552 269.553 138.802 269.496 139.087C269.439 139.372 269.371 139.737 269.314 140.079C269.257 140.421 269.2 140.649 269.165 140.956C269.131 141.264 269.086 141.652 269.063 142.005C269.04 142.358 268.994 142.609 268.983 142.928C268.972 143.247 268.983 143.68 268.983 144.068C268.983 144.455 268.983 144.683 268.983 145.002H267.592V140.364C267.592 140.364 271.709 136.945 267.592 135.725C267.387 133.585 266.719 131.516 265.634 129.66C264.549 127.804 263.073 126.207 261.308 124.978V120.146H260.008V125.023C258.241 126.251 256.763 127.848 255.675 129.704C254.588 131.56 253.919 133.63 253.713 135.771L253.53 135.839V129.377C253.804 128.511 254.055 127.668 254.26 126.847C254.328 126.562 254.374 126.288 254.442 126.015C254.568 125.479 254.693 124.944 254.785 124.419C254.842 124.1 254.876 123.793 254.921 123.473C254.967 123.154 255.07 122.562 255.115 122.117C255.161 121.673 255.115 121.479 255.184 121.16C255.252 120.841 255.252 120.328 255.264 119.929C255.275 119.53 255.264 119.291 255.264 118.983C255.264 118.675 255.264 118.208 255.264 117.843C255.264 117.479 255.264 117.228 255.184 116.932C255.104 116.635 255.127 116.214 255.081 115.872C255.035 115.53 254.99 115.279 254.933 114.994C254.876 114.709 254.83 114.322 254.762 114.003C254.693 113.684 254.614 113.444 254.545 113.159C254.477 112.874 254.385 112.544 254.294 112.236C254.203 111.928 254.112 111.7 254.02 111.438L253.713 110.572L253.382 109.82C253.256 109.546 253.142 109.273 253.005 109.011C252.869 108.749 252.766 108.532 252.629 108.293C252.492 108.053 252.355 107.791 252.207 107.541C252.059 107.29 251.933 107.096 251.797 106.868L251.329 106.173L250.873 105.535L250.371 104.885L249.869 104.292C249.698 104.087 249.527 103.882 249.345 103.688C249.162 103.495 248.991 103.312 248.82 103.13C248.649 102.948 248.455 102.754 248.261 102.583C248.067 102.412 247.908 102.23 247.725 102.059C247.625 101.977 247.53 101.89 247.44 101.797C246.052 100.551 244.552 99.437 242.958 98.4687C239.128 95.8412 236.261 92.0355 234.793 87.6302L234.086 75.4355H232.466L231.759 87.6302C230.294 92.0335 227.431 95.8388 223.605 98.4687C216.01 103.119 207.525 112.361 213.01 129.354V135.782L212.828 135.714C212.623 133.574 211.955 131.504 210.87 129.649C209.785 127.793 208.309 126.195 206.544 124.966V120.146H205.244V125.023C203.477 126.251 201.999 127.848 200.912 129.704C199.825 131.56 199.155 133.63 198.949 135.771C194.832 136.967 198.949 140.409 198.949 140.409V145.048H196.143C196.143 144.729 196.143 144.421 196.143 144.102C196.143 143.783 196.143 143.338 196.143 142.962C196.143 142.586 196.086 142.347 196.064 142.039C196.041 141.731 196.064 141.332 195.961 140.991C195.858 140.649 195.858 140.398 195.813 140.113C195.767 139.828 195.699 139.441 195.63 139.121C195.562 138.802 195.493 138.563 195.425 138.278C195.357 137.993 195.265 137.651 195.163 137.355C195.06 137.059 194.992 136.819 194.9 136.557C194.809 136.295 194.695 135.976 194.581 135.691C194.467 135.406 194.364 135.189 194.25 134.939C194.136 134.688 194.011 134.392 193.885 134.13C193.76 133.867 193.634 133.651 193.509 133.412C193.384 133.172 193.235 132.91 193.087 132.659C192.939 132.409 192.813 132.203 192.665 131.987C192.517 131.77 192.357 131.508 192.198 131.28C192.038 131.052 191.901 130.859 191.741 130.654C191.582 130.448 191.411 130.209 191.24 130.004C191.068 129.799 190.92 129.605 190.749 129.411C190.578 129.218 190.396 129.001 190.213 128.807L189.7 128.249C189.506 128.066 189.324 127.873 189.141 127.69L188.594 127.177L188.32 126.915C186.905 125.667 185.382 124.546 183.77 123.565C179.94 120.938 177.077 117.132 175.616 112.726L174.897 100.532H173.506L172.799 112.726C171.331 117.131 168.464 120.937 164.633 123.565C157.049 128.215 148.553 137.446 154.05 154.45V160.878L153.856 160.81C153.651 158.67 152.983 156.6 151.898 154.745C150.813 152.889 149.337 151.291 147.572 150.062V145.219H146.272V150.097C144.507 151.325 143.031 152.923 141.946 154.779C140.861 156.635 140.193 158.704 139.988 160.844C135.871 162.041 139.988 165.482 139.988 165.482V170.11H135.016L133.739 170.451V168.582C133.802 167.831 133.568 167.085 133.086 166.505C132.603 165.925 131.912 165.558 131.161 165.482H129.337V158.394C129.353 158.195 129.29 157.997 129.162 157.844C129.034 157.69 128.851 157.593 128.652 157.573C128.456 157.596 128.276 157.694 128.15 157.847C128.025 158.001 127.963 158.196 127.98 158.394V171.956L124.558 172.856V219.048H119.997L119.757 208.426H120.783V206.887H119.723L119.392 192.071H120.339V190.521H119.358L119.004 174.201H119.905V172.651H118.765V168.013H119.905V166.645H118.765C118.765 166.645 118.343 162.93 116.632 162.588V159.465H116.142V162.588C114.454 162.964 114.021 166.645 114.021 166.645H112.88V168.013H114.021V172.64H112.88V174.19H113.872L113.519 190.51H112.538V192.06H113.485L113.154 206.876H112.093V208.415H113.12L112.88 219.036H107.828V234.115H357.173V219.014H352.109ZM117.305 172.651H115.423V168.013H117.305V172.651ZM143.341 170.075H141.288V165.448H143.341V170.075ZM146.683 170.075H144.63V165.448H146.683V170.075ZM150.024 170.075H147.96V165.448H150.024V170.075ZM154.073 170.075H151.302V165.448H153.879L154.073 165.277V170.075ZM202.29 145.002H200.226V140.364H202.29V145.002ZM205.632 145.002H203.568V140.364H205.632V145.002ZM208.962 145.002H206.909V140.364H208.962V145.002ZM213.01 145.002H210.239V140.364H212.828L213.01 140.193V145.002ZM228.543 219.002H223.981V209.041H228.805L228.543 219.002ZM240.997 219.002H236.435L236.23 209.041H241.054L240.997 219.002ZM256.119 145.002H253.336V140.204L253.519 140.375H256.107L256.119 145.002ZM259.449 145.002H257.396V140.364H259.449V145.002ZM262.79 145.002H260.738V140.364H262.79V145.002ZM266.132 145.002H264.068V140.364H266.132V145.002ZM313.642 170.075H310.871V165.277L311.054 165.448H313.642V170.075ZM316.972 170.075H314.92V165.448H316.972V170.075ZM320.314 170.075H318.25V165.448H320.314V170.075ZM323.655 170.075H321.591V165.448H323.655V170.075ZM349.509 172.651H347.627V168.013H349.509V172.651Z" fill="#B7A48A"/>
<path d="M325.024 179.58H310.871V183.922H325.024V179.58Z" fill="#FFF6E7"/>
<path d="M325.024 189.131H322.641V195.946H325.024V189.131Z" fill="#FFF6E7"/>
<path d="M321.1 189.131H318.717V195.946H321.1V189.131Z" fill="#FFF6E7"/>
<path d="M317.177 189.131H314.794V195.946H317.177V189.131Z" fill="#FFF6E7"/>
<path d="M313.255 189.131H310.871V195.946H313.255V189.131Z" fill="#FFF6E7"/>
<path d="M288.165 156.422H277.251V159.282H288.165V156.422Z" fill="#FFF6E7"/>
<path d="M303.104 156.422H292.19V159.282H303.104V156.422Z" fill="#FFF6E7"/>
<path d="M173.323 156.422H162.409V159.282H173.323V156.422Z" fill="#FFF6E7"/>
<path d="M188.263 156.422H177.349V159.282H188.263V156.422Z" fill="#FFF6E7"/>
<path d="M105.284 247.861C105.284 247.861 66.7719 213.67 56.3369 156.686" stroke="#007453" stroke-width="2.05" stroke-miterlimit="10"/>
<path d="M58.9948 170.122C57.0675 167.364 51.8785 161.756 43.6446 165.757C43.5032 165.834 43.3799 165.941 43.2829 166.07C43.1859 166.199 43.1173 166.347 43.0818 166.504C43.0462 166.661 43.0444 166.824 43.0766 166.982C43.1087 167.14 43.174 167.29 43.2682 167.421C47.4992 172.971 55.0375 172.401 58.2877 171.831C58.4637 171.79 58.6273 171.707 58.7649 171.59C58.9025 171.473 59.0104 171.325 59.0794 171.158C59.1485 170.991 59.1768 170.81 59.1621 170.629C59.1474 170.449 59.0901 170.275 58.9948 170.122Z" fill="#87AB9B"/>
<path d="M58.9948 170.122C57.0675 167.364 51.8785 161.756 43.6446 165.757C43.5032 165.834 43.3799 165.941 43.2829 166.07C43.1859 166.199 43.1173 166.347 43.0818 166.504C43.0462 166.661 43.0444 166.824 43.0766 166.982C43.1087 167.14 43.174 167.29 43.2682 167.421C47.4992 172.971 55.0375 172.401 58.2877 171.831C58.4637 171.79 58.6273 171.707 58.7649 171.59C58.9025 171.473 59.0104 171.325 59.0794 171.158C59.1485 170.991 59.1768 170.81 59.1621 170.629C59.1474 170.449 59.0901 170.275 58.9948 170.122Z" fill="#9FBB80"/>
<path d="M57.9 170.36C57.9 170.36 52.6769 166.998 50.1793 167.01C47.6817 167.021 57.9 170.36 57.9 170.36Z" fill="#98C3B1"/>
<path d="M58.9946 170.122C59.4736 166.794 61.5606 159.443 70.7183 159.283C70.8799 159.289 71.0384 159.329 71.1832 159.401C71.3281 159.473 71.456 159.575 71.5584 159.7C71.6609 159.825 71.7355 159.97 71.7775 160.126C71.8194 160.283 71.8277 160.446 71.8017 160.605C70.5472 167.443 63.5678 170.361 60.3974 171.33C60.2215 171.372 60.038 171.372 59.8622 171.329C59.6864 171.287 59.5232 171.203 59.3862 171.085C59.2491 170.967 59.1422 170.818 59.0741 170.651C59.006 170.483 58.9788 170.302 58.9946 170.122Z" fill="#87AB9B"/>
<path d="M58.9946 170.122C59.4736 166.794 61.5606 159.443 70.7183 159.283C70.8799 159.289 71.0384 159.329 71.1832 159.401C71.3281 159.473 71.456 159.575 71.5584 159.7C71.6609 159.825 71.7355 159.97 71.7775 160.126C71.8194 160.283 71.8277 160.446 71.8017 160.605C70.5472 167.443 63.5678 170.361 60.3974 171.33C60.2215 171.372 60.038 171.372 59.8622 171.329C59.6864 171.287 59.5232 171.203 59.3862 171.085C59.2491 170.967 59.1422 170.818 59.0741 170.651C59.006 170.483 58.9788 170.302 58.9946 170.122Z" fill="#9FBB80"/>
<path d="M60.0781 169.838C60.0781 169.838 63.2143 164.481 65.4496 163.364C67.6848 162.247 60.0781 169.838 60.0781 169.838Z" fill="#98C3B1"/>
<path d="M66.4866 189.576C64.2057 187.115 58.2526 182.294 50.6687 187.411C50.541 187.509 50.4353 187.632 50.3588 187.774C50.2823 187.915 50.2366 188.072 50.2248 188.232C50.2129 188.392 50.2352 188.553 50.2901 188.705C50.345 188.856 50.4313 188.994 50.5433 189.109C55.5156 194.01 62.8828 192.38 66.0304 191.388C66.202 191.323 66.3552 191.218 66.4772 191.081C66.5992 190.944 66.6863 190.779 66.7311 190.601C66.7759 190.423 66.777 190.237 66.7344 190.059C66.6919 189.88 66.6069 189.715 66.4866 189.576Z" fill="#87AB9B"/>
<path d="M66.4866 189.576C64.2057 187.115 58.2526 182.294 50.6687 187.411C50.541 187.509 50.4353 187.632 50.3588 187.774C50.2823 187.915 50.2366 188.072 50.2248 188.232C50.2129 188.392 50.2352 188.553 50.2901 188.705C50.345 188.856 50.4313 188.994 50.5433 189.109C55.5156 194.01 62.8828 192.38 66.0304 191.388C66.202 191.323 66.3552 191.218 66.4772 191.081C66.5992 190.944 66.6863 190.779 66.7311 190.601C66.7759 190.423 66.777 190.237 66.7344 190.059C66.6919 189.88 66.6069 189.715 66.4866 189.576Z" fill="#9FBB80"/>
<path d="M65.4377 189.951C65.4377 189.951 59.7925 187.364 57.3292 187.74C54.8658 188.117 65.4377 189.951 65.4377 189.951Z" fill="#98C3B1"/>
<path d="M66.4873 189.577C66.4873 186.158 67.5251 178.625 76.5573 177.189C76.7173 177.171 76.8792 177.187 77.0324 177.237C77.1856 177.286 77.3266 177.367 77.4461 177.475C77.5657 177.582 77.6611 177.714 77.7261 177.861C77.7911 178.008 77.8242 178.167 77.8232 178.328C77.5495 185.292 71.049 189.144 68.0611 190.557C67.8936 190.626 67.7119 190.655 67.5313 190.64C67.3506 190.625 67.1761 190.567 67.0222 190.471C66.8684 190.375 66.7396 190.244 66.6465 190.089C66.5535 189.933 66.4989 189.758 66.4873 189.577Z" fill="#87AB9B"/>
<path d="M66.4873 189.577C66.4873 186.158 67.5251 178.625 76.5573 177.189C76.7173 177.171 76.8792 177.187 77.0324 177.237C77.1856 177.286 77.3266 177.367 77.4461 177.475C77.5657 177.582 77.6611 177.714 77.7261 177.861C77.7911 178.008 77.8242 178.167 77.8232 178.328C77.5495 185.292 71.049 189.144 68.0611 190.557C67.8936 190.626 67.7119 190.655 67.5313 190.64C67.3506 190.625 67.1761 190.567 67.0222 190.471C66.8684 190.375 66.7396 190.244 66.6465 190.089C66.5535 189.933 66.4989 189.758 66.4873 189.577Z" fill="#9FBB80"/>
<path d="M67.5244 189.132C67.5244 189.132 69.8737 183.434 71.9265 181.963C73.9793 180.493 67.5244 189.132 67.5244 189.132Z" fill="#98C3B1"/>
<path d="M76.3288 209.999C73.8198 207.719 67.4904 203.457 60.3627 209.212C60.2413 209.319 60.1441 209.451 60.0776 209.598C60.011 209.745 59.9766 209.905 59.9766 210.067C59.9766 210.229 60.011 210.388 60.0776 210.536C60.1441 210.683 60.2413 210.815 60.3627 210.922C65.7341 215.367 72.9075 213.11 75.9866 211.833C76.1534 211.758 76.2994 211.643 76.4123 211.498C76.5253 211.354 76.6017 211.185 76.6353 211.005C76.6689 210.825 76.6585 210.639 76.6052 210.464C76.5518 210.289 76.457 210.129 76.3288 209.999Z" fill="#87AB9B"/>
<path d="M76.3288 209.999C73.8198 207.719 67.4904 203.457 60.3627 209.212C60.2413 209.319 60.1441 209.451 60.0776 209.598C60.011 209.745 59.9766 209.905 59.9766 210.067C59.9766 210.229 60.011 210.388 60.0776 210.536C60.1441 210.683 60.2413 210.815 60.3627 210.922C65.7341 215.367 72.9075 213.11 75.9866 211.833C76.1534 211.758 76.2994 211.643 76.4123 211.498C76.5253 211.354 76.6017 211.185 76.6353 211.005C76.6689 210.825 76.6585 210.639 76.6052 210.464C76.5518 210.289 76.457 210.129 76.3288 209.999Z" fill="#9FBB80"/>
<path d="M75.3139 210.479C75.3139 210.479 69.4635 208.382 67.0343 208.963C64.6052 209.544 75.3139 210.479 75.3139 210.479Z" fill="#98C3B1"/>
<path d="M76.3287 210C76.0435 206.649 76.4085 199.014 85.2925 196.803C85.451 196.772 85.6143 196.774 85.7715 196.811C85.9288 196.848 86.0765 196.918 86.2048 197.016C86.3331 197.114 86.4391 197.238 86.5158 197.38C86.5925 197.522 86.6381 197.679 86.6496 197.84C86.9689 204.803 80.822 209.237 77.9709 210.855C77.8094 210.936 77.6308 210.978 77.4499 210.977C77.269 210.976 77.091 210.932 76.9306 210.848C76.7701 210.765 76.6319 210.644 76.5272 210.497C76.4226 210.349 76.3545 210.179 76.3287 210Z" fill="#87AB9B"/>
<path d="M76.3287 210C76.0435 206.649 76.4085 199.014 85.2925 196.803C85.451 196.772 85.6143 196.774 85.7715 196.811C85.9288 196.848 86.0765 196.918 86.2048 197.016C86.3331 197.114 86.4391 197.238 86.5158 197.38C86.5925 197.522 86.6381 197.679 86.6496 197.84C86.9689 204.803 80.822 209.237 77.9709 210.855C77.8094 210.936 77.6308 210.978 77.4499 210.977C77.269 210.976 77.091 210.932 76.9306 210.848C76.7701 210.765 76.6319 210.644 76.5272 210.497C76.4226 210.349 76.3545 210.179 76.3287 210Z" fill="#9FBB80"/>
<path d="M77.3213 209.475C77.3213 209.475 79.1574 203.549 81.0847 201.965C83.0121 200.38 77.3213 209.475 77.3213 209.475Z" fill="#98C3B1"/>
<path d="M89.1699 229.43C86.3986 227.516 79.5788 224.051 73.2038 230.65C73.0971 230.772 73.0178 230.916 72.9711 231.071C72.9244 231.226 72.9114 231.39 72.933 231.55C72.9546 231.711 73.0102 231.865 73.0963 232.003C73.1823 232.141 73.2967 232.258 73.4319 232.348C79.3279 236.086 86.1933 232.929 89.0558 231.277C89.2088 231.18 89.3366 231.049 89.4288 230.894C89.521 230.738 89.5749 230.563 89.586 230.383C89.5972 230.202 89.5652 230.022 89.4929 229.856C89.4205 229.691 89.3098 229.545 89.1699 229.43Z" fill="#87AB9B"/>
<path d="M89.1699 229.43C86.3986 227.516 79.5788 224.051 73.2038 230.65C73.0971 230.772 73.0178 230.916 72.9711 231.071C72.9244 231.226 72.9114 231.39 72.933 231.55C72.9546 231.711 73.0102 231.865 73.0963 232.003C73.1823 232.141 73.2967 232.258 73.4319 232.348C79.3279 236.086 86.1933 232.929 89.0558 231.277C89.2088 231.18 89.3366 231.049 89.4288 230.894C89.521 230.738 89.5749 230.563 89.586 230.383C89.5972 230.202 89.5652 230.022 89.4929 229.856C89.4205 229.691 89.3098 229.545 89.1699 229.43Z" fill="#9FBB80"/>
<path d="M88.2242 230.023C88.2242 230.023 82.1571 228.679 79.8192 229.567C77.4813 230.456 88.2242 230.023 88.2242 230.023Z" fill="#98C3B1"/>
<path d="M89.1703 229.431C88.4632 226.137 87.8702 218.513 96.4006 215.196C96.5542 215.146 96.7165 215.13 96.877 215.147C97.0374 215.165 97.1922 215.217 97.3313 215.298C97.4704 215.38 97.5905 215.491 97.6836 215.622C97.7768 215.754 97.8409 215.904 97.8718 216.062C99.0122 222.901 93.5268 228.063 90.9038 230.069C90.7541 230.17 90.5827 230.233 90.4037 230.254C90.2247 230.276 90.0432 230.255 89.874 230.192C89.7048 230.13 89.5529 230.028 89.4305 229.896C89.3082 229.764 89.219 229.604 89.1703 229.431Z" fill="#87AB9B"/>
<path d="M89.1703 229.431C88.4632 226.137 87.8702 218.513 96.4006 215.196C96.5542 215.146 96.7165 215.13 96.877 215.147C97.0374 215.165 97.1922 215.217 97.3313 215.298C97.4704 215.38 97.5905 215.491 97.6836 215.622C97.7768 215.754 97.8409 215.904 97.8718 216.062C99.0122 222.901 93.5268 228.063 90.9038 230.069C90.7541 230.17 90.5827 230.233 90.4037 230.254C90.2247 230.276 90.0432 230.255 89.874 230.192C89.7048 230.13 89.5529 230.028 89.4305 229.896C89.3082 229.764 89.219 229.604 89.1703 229.431Z" fill="#9FBB80"/>
<path d="M90.083 228.782C90.083 228.782 91.2234 222.662 92.8771 220.804C94.5307 218.946 90.083 228.782 90.083 228.782Z" fill="#98C3B1"/>
<path d="M55.6528 157.449C53.372 154.987 48.9357 148.753 54.5124 141.493C54.6194 141.372 54.751 141.275 54.8985 141.208C55.046 141.142 55.2059 141.107 55.3677 141.107C55.5295 141.107 55.6895 141.142 55.8369 141.208C55.9844 141.275 56.116 141.372 56.2231 141.493C60.7848 146.781 58.6522 154.03 57.4319 157.096C57.3547 157.253 57.2422 157.391 57.1031 157.498C56.964 157.605 56.802 157.678 56.6299 157.712C56.4577 157.747 56.28 157.741 56.1105 157.695C55.941 157.649 55.7844 157.565 55.6528 157.449Z" fill="#87AB9B"/>
<path d="M55.6528 157.449C53.372 154.987 48.9357 148.753 54.5124 141.493C54.6194 141.372 54.751 141.275 54.8985 141.208C55.046 141.142 55.2059 141.107 55.3677 141.107C55.5295 141.107 55.6895 141.142 55.8369 141.208C55.9844 141.275 56.116 141.372 56.2231 141.493C60.7848 146.781 58.6522 154.03 57.4319 157.096C57.3547 157.253 57.2422 157.391 57.1031 157.498C56.964 157.605 56.802 157.678 56.6299 157.712C56.4577 157.747 56.28 157.741 56.1105 157.695C55.941 157.649 55.7844 157.565 55.6528 157.449Z" fill="#9FBB80"/>
<path d="M56.1088 156.422C56.1088 156.422 53.8964 150.621 54.4324 148.182C54.9684 145.744 56.1088 156.422 56.1088 156.422Z" fill="#98C3B1"/>
<path d="M85.1898 309.415L68.7675 311.045C51.4785 302.258 36.2423 286.895 24.7695 264.751C69.908 262.904 156.456 306.27 156.456 306.27C129.416 320.88 101.623 323.878 77.2181 314.76L85.1898 309.415Z" fill="#3D5B40"/>
<path d="M0.307617 177.244C7.70904 179.66 14.9052 182.384 21.9075 185.336L22.1812 195.434L29.2405 188.595C98.807 220.404 146.933 276.648 168.613 318.953C168.613 318.953 127.557 320.366 84.7454 295.202L93.9715 281.218L78.5643 291.395C58.5952 278.483 38.649 259.541 22.5917 231.744L33.6996 218.41L18.0756 223.447C10.5494 208.711 4.594 193.225 0.307617 177.244Z" fill="#9FBB80"/>
<path d="M84.7454 295.179L93.9715 281.195L78.5643 291.373C58.5952 278.46 38.649 259.518 22.5917 231.721L33.6996 218.387L18.0756 223.424C10.5509 208.695 4.59551 193.217 0.307617 177.244C0.307617 177.244 93.675 279.953 168.613 318.93C168.613 318.93 127.614 320.344 84.7454 295.179Z" fill="#619668"/>
<path d="M168.613 318.93C168.613 318.93 81.5294 269.867 0.307617 177.244" stroke="#FEFEFE" stroke-width="0.71" stroke-miterlimit="10"/>
<path d="M54.5693 201.725L57.0327 234.981" stroke="#FEFEFE" stroke-width="0.71" stroke-miterlimit="10"/>
<path d="M81.0508 255.793L47.2939 265.218" stroke="#FEFEFE" stroke-width="0.71" stroke-miterlimit="10"/>
<path d="M122.277 288.239L117.282 250.219" stroke="#FEFEFE" stroke-width="0.71" stroke-miterlimit="10"/>
<path style="mix-blend-mode:multiply" opacity="0.33" d="M22.5917 231.721L33.6996 218.387L18.0756 223.424C10.5509 208.695 4.59551 193.217 0.307617 177.244C7.70904 179.66 14.9052 182.384 21.9075 185.336L22.1812 195.434L29.2405 188.595C98.807 220.404 146.933 276.648 168.613 318.953C168.613 318.953 155.27 319.409 135.86 315.135C115.571 321.643 95.4541 321.586 77.2186 314.782L85.2016 309.437L68.7793 311.066C51.4789 302.257 36.2427 286.894 24.7699 264.75C32.8774 264.59 40.9777 265.324 48.9244 266.938C38.7446 256.314 29.9015 244.488 22.5917 231.721Z" fill="url(#paint4_linear_35_208)"/>
<path d="M347.685 247.861C347.685 247.861 386.197 213.67 396.632 156.686" stroke="#007453" stroke-width="2.05" stroke-miterlimit="10"/>
<path d="M393.975 170.122C395.914 167.364 401.103 161.756 409.336 165.757C409.477 165.835 409.599 165.943 409.695 166.072C409.791 166.202 409.858 166.35 409.893 166.507C409.927 166.664 409.928 166.827 409.895 166.984C409.862 167.142 409.796 167.291 409.701 167.421C405.47 172.971 397.944 172.401 394.682 171.831C394.506 171.79 394.342 171.707 394.205 171.59C394.067 171.473 393.959 171.325 393.89 171.158C393.821 170.991 393.793 170.81 393.807 170.629C393.822 170.449 393.88 170.275 393.975 170.122Z" fill="#87AB9B"/>
<path d="M393.975 170.122C395.914 167.364 401.103 161.756 409.336 165.757C409.477 165.835 409.599 165.943 409.695 166.072C409.791 166.202 409.858 166.35 409.893 166.507C409.927 166.664 409.928 166.827 409.895 166.984C409.862 167.142 409.796 167.291 409.701 167.421C405.47 172.971 397.944 172.401 394.682 171.831C394.506 171.79 394.342 171.707 394.205 171.59C394.067 171.473 393.959 171.325 393.89 171.158C393.821 170.991 393.793 170.81 393.807 170.629C393.822 170.449 393.88 170.275 393.975 170.122Z" fill="#9FBB80"/>
<path d="M395.069 170.36C395.069 170.36 400.293 166.998 402.79 167.01C405.288 167.021 395.069 170.36 395.069 170.36Z" fill="#98C3B1"/>
<path d="M393.975 170.122C393.496 166.794 391.409 159.443 382.262 159.283C382.101 159.289 381.942 159.329 381.797 159.401C381.653 159.473 381.525 159.575 381.422 159.7C381.32 159.825 381.245 159.97 381.203 160.126C381.161 160.283 381.153 160.446 381.179 160.605C382.433 167.443 389.413 170.361 392.583 171.33C392.758 171.37 392.94 171.368 393.115 171.325C393.289 171.281 393.451 171.197 393.586 171.079C393.722 170.961 393.828 170.813 393.895 170.647C393.963 170.481 393.99 170.301 393.975 170.122Z" fill="#87AB9B"/>
<path d="M393.975 170.122C393.496 166.794 391.409 159.443 382.262 159.283C382.101 159.289 381.942 159.329 381.797 159.401C381.653 159.473 381.525 159.575 381.422 159.7C381.32 159.825 381.245 159.97 381.203 160.126C381.161 160.283 381.153 160.446 381.179 160.605C382.433 167.443 389.413 170.361 392.583 171.33C392.758 171.37 392.94 171.368 393.115 171.325C393.289 171.281 393.451 171.197 393.586 171.079C393.722 170.961 393.828 170.813 393.895 170.647C393.963 170.481 393.99 170.301 393.975 170.122Z" fill="#9FBB80"/>
<path d="M392.891 169.838C392.891 169.838 389.755 164.481 387.52 163.364C385.284 162.247 392.891 169.838 392.891 169.838Z" fill="#98C3B1"/>
<path d="M386.482 189.576C388.763 187.115 394.716 182.294 402.3 187.411C402.428 187.508 402.535 187.631 402.613 187.772C402.69 187.913 402.737 188.069 402.75 188.229C402.763 188.39 402.742 188.551 402.688 188.703C402.634 188.854 402.548 188.993 402.437 189.109C397.464 194.01 390.086 192.38 386.938 191.388C386.767 191.323 386.613 191.218 386.491 191.081C386.369 190.944 386.282 190.779 386.238 190.601C386.193 190.423 386.192 190.237 386.234 190.059C386.277 189.88 386.362 189.715 386.482 189.576Z" fill="#87AB9B"/>
<path d="M386.482 189.576C388.763 187.115 394.716 182.294 402.3 187.411C402.428 187.508 402.535 187.631 402.613 187.772C402.69 187.913 402.737 188.069 402.75 188.229C402.763 188.39 402.742 188.551 402.688 188.703C402.634 188.854 402.548 188.993 402.437 189.109C397.464 194.01 390.086 192.38 386.938 191.388C386.767 191.323 386.613 191.218 386.491 191.081C386.369 190.944 386.282 190.779 386.238 190.601C386.193 190.423 386.192 190.237 386.234 190.059C386.277 189.88 386.362 189.715 386.482 189.576Z" fill="#9FBB80"/>
<path d="M387.531 189.951C387.531 189.951 393.176 187.364 395.651 187.74C398.126 188.117 387.531 189.951 387.531 189.951Z" fill="#98C3B1"/>
<path d="M386.482 189.576C386.482 186.157 385.455 178.623 376.412 177.187C376.253 177.171 376.092 177.189 375.94 177.239C375.788 177.289 375.649 177.371 375.531 177.478C375.412 177.586 375.318 177.717 375.254 177.863C375.189 178.009 375.156 178.167 375.157 178.327C375.431 185.291 381.931 189.143 384.919 190.556C385.086 190.623 385.267 190.649 385.446 190.633C385.625 190.617 385.798 190.559 385.95 190.463C386.103 190.368 386.23 190.238 386.323 190.083C386.415 189.929 386.47 189.755 386.482 189.576Z" fill="#87AB9B"/>
<path d="M386.482 189.576C386.482 186.157 385.455 178.623 376.412 177.187C376.253 177.171 376.092 177.189 375.94 177.239C375.788 177.289 375.649 177.371 375.531 177.478C375.412 177.586 375.318 177.717 375.254 177.863C375.189 178.009 375.156 178.167 375.157 178.327C375.431 185.291 381.931 189.143 384.919 190.556C385.086 190.623 385.267 190.649 385.446 190.633C385.625 190.617 385.798 190.559 385.95 190.463C386.103 190.368 386.23 190.238 386.323 190.083C386.415 189.929 386.47 189.755 386.482 189.576Z" fill="#9FBB80"/>
<path d="M385.443 189.132C385.443 189.132 383.163 183.434 381.041 181.963C378.92 180.493 385.443 189.132 385.443 189.132Z" fill="#98C3B1"/>
<path d="M376.652 209.999C379.149 207.719 385.479 203.457 392.618 209.212C392.739 209.319 392.836 209.451 392.903 209.598C392.969 209.745 393.004 209.905 393.004 210.067C393.004 210.229 392.969 210.388 392.903 210.536C392.836 210.683 392.739 210.815 392.618 210.922C387.235 215.367 380.073 213.11 376.982 211.833C376.816 211.756 376.672 211.641 376.56 211.496C376.448 211.351 376.373 211.182 376.34 211.002C376.308 210.822 376.319 210.637 376.373 210.462C376.428 210.288 376.523 210.129 376.652 209.999Z" fill="#87AB9B"/>
<path d="M376.652 209.999C379.149 207.719 385.479 203.457 392.618 209.212C392.739 209.319 392.836 209.451 392.903 209.598C392.969 209.745 393.004 209.905 393.004 210.067C393.004 210.229 392.969 210.388 392.903 210.536C392.836 210.683 392.739 210.815 392.618 210.922C387.235 215.367 380.073 213.11 376.982 211.833C376.816 211.756 376.672 211.641 376.56 211.496C376.448 211.351 376.373 211.182 376.34 211.002C376.308 210.822 376.319 210.637 376.373 210.462C376.428 210.288 376.523 210.129 376.652 209.999Z" fill="#9FBB80"/>
<path d="M377.644 210.479C377.644 210.479 383.483 208.382 385.912 208.963C388.341 209.544 377.644 210.479 377.644 210.479Z" fill="#98C3B1"/>
<path d="M376.651 210C376.936 206.649 376.56 199.013 367.676 196.802C367.518 196.773 367.356 196.777 367.2 196.815C367.044 196.853 366.898 196.923 366.771 197.02C366.644 197.118 366.539 197.242 366.463 197.383C366.387 197.524 366.342 197.68 366.33 197.84C365.999 204.803 372.146 209.236 374.998 210.855C375.159 210.939 375.339 210.982 375.522 210.982C375.704 210.982 375.884 210.939 376.046 210.855C376.208 210.771 376.347 210.65 376.452 210.501C376.558 210.352 376.626 210.18 376.651 210Z" fill="#87AB9B"/>
<path d="M376.651 210C376.936 206.649 376.56 199.013 367.676 196.802C367.518 196.773 367.356 196.777 367.2 196.815C367.044 196.853 366.898 196.923 366.771 197.02C366.644 197.118 366.539 197.242 366.463 197.383C366.387 197.524 366.342 197.68 366.33 197.84C365.999 204.803 372.146 209.236 374.998 210.855C375.159 210.939 375.339 210.982 375.522 210.982C375.704 210.982 375.884 210.939 376.046 210.855C376.208 210.771 376.347 210.65 376.452 210.501C376.558 210.352 376.626 210.18 376.651 210Z" fill="#9FBB80"/>
<path d="M375.659 209.475C375.659 209.475 373.811 203.549 371.884 201.965C369.957 200.38 375.659 209.475 375.659 209.475Z" fill="#98C3B1"/>
<path d="M363.798 229.43C366.569 227.516 373.389 224.051 379.764 230.65C379.87 230.773 379.949 230.917 379.995 231.073C380.041 231.229 380.053 231.392 380.03 231.553C380.007 231.714 379.95 231.868 379.863 232.005C379.776 232.142 379.661 232.259 379.525 232.348C373.629 236.086 366.763 232.929 363.912 231.277C363.759 231.18 363.631 231.049 363.539 230.894C363.447 230.738 363.393 230.563 363.382 230.383C363.371 230.202 363.403 230.022 363.475 229.856C363.548 229.691 363.658 229.545 363.798 229.43Z" fill="#87AB9B"/>
<path d="M363.798 229.43C366.569 227.516 373.389 224.051 379.764 230.65C379.87 230.773 379.949 230.917 379.995 231.073C380.041 231.229 380.053 231.392 380.03 231.553C380.007 231.714 379.95 231.868 379.863 232.005C379.776 232.142 379.661 232.259 379.525 232.348C373.629 236.086 366.763 232.929 363.912 231.277C363.759 231.18 363.631 231.049 363.539 230.894C363.447 230.738 363.393 230.563 363.382 230.383C363.371 230.202 363.403 230.022 363.475 229.856C363.548 229.691 363.658 229.545 363.798 229.43Z" fill="#9FBB80"/>
<path d="M364.757 230.023C364.757 230.023 370.824 228.679 373.15 229.567C375.477 230.456 364.757 230.023 364.757 230.023Z" fill="#98C3B1"/>
<path d="M363.798 229.431C364.517 226.137 365.11 218.512 356.579 215.196C356.425 215.144 356.262 215.126 356.1 215.143C355.938 215.159 355.782 215.21 355.641 215.293C355.501 215.375 355.38 215.486 355.286 215.618C355.192 215.751 355.127 215.902 355.097 216.062C353.899 222.9 359.442 228.063 362.065 230.069C362.214 230.169 362.386 230.233 362.565 230.254C362.744 230.275 362.925 230.254 363.095 230.192C363.264 230.13 363.416 230.028 363.538 229.896C363.66 229.763 363.75 229.604 363.798 229.431Z" fill="#87AB9B"/>
<path d="M363.798 229.431C364.517 226.137 365.11 218.512 356.579 215.196C356.425 215.144 356.262 215.126 356.1 215.143C355.938 215.159 355.782 215.21 355.641 215.293C355.501 215.375 355.38 215.486 355.286 215.618C355.192 215.751 355.127 215.902 355.097 216.062C353.899 222.9 359.442 228.063 362.065 230.069C362.214 230.169 362.386 230.233 362.565 230.254C362.744 230.275 362.925 230.254 363.095 230.192C363.264 230.13 363.416 230.028 363.538 229.896C363.66 229.763 363.75 229.604 363.798 229.431Z" fill="#9FBB80"/>
<path d="M362.886 228.782C362.886 228.782 361.802 222.662 360.092 220.804C358.381 218.946 362.886 228.782 362.886 228.782Z" fill="#98C3B1"/>
<path d="M397.316 157.448C399.597 154.987 404.033 148.753 398.456 141.493C398.349 141.373 398.218 141.278 398.072 141.212C397.925 141.147 397.767 141.113 397.607 141.113C397.446 141.113 397.288 141.147 397.141 141.212C396.995 141.278 396.864 141.373 396.757 141.493C392.195 146.781 394.316 154.029 395.537 157.095C395.614 157.253 395.726 157.39 395.865 157.497C396.005 157.604 396.167 157.678 396.339 157.712C396.511 157.746 396.689 157.74 396.858 157.694C397.028 157.649 397.184 157.564 397.316 157.448Z" fill="#87AB9B"/>
<path d="M397.316 157.448C399.597 154.987 404.033 148.753 398.456 141.493C398.349 141.373 398.218 141.278 398.072 141.212C397.925 141.147 397.767 141.113 397.607 141.113C397.446 141.113 397.288 141.147 397.141 141.212C396.995 141.278 396.864 141.373 396.757 141.493C392.195 146.781 394.316 154.029 395.537 157.095C395.614 157.253 395.726 157.39 395.865 157.497C396.005 157.604 396.167 157.678 396.339 157.712C396.511 157.746 396.689 157.74 396.858 157.694C397.028 157.649 397.184 157.564 397.316 157.448Z" fill="#9FBB80"/>
<path d="M396.859 156.422C396.859 156.422 399.072 150.621 398.536 148.182C398 145.744 396.859 156.422 396.859 156.422Z" fill="#98C3B1"/>
<path d="M366.809 309.415L383.232 311.045C400.543 302.258 415.757 286.895 427.23 264.751C382.091 262.904 295.532 306.27 295.532 306.27C322.572 320.88 350.364 323.878 374.77 314.76L366.809 309.415Z" fill="#3D5B40"/>
<path d="M451.692 177.244C444.291 179.66 437.095 182.384 430.092 185.336L429.807 195.434L422.748 188.595C353.181 220.404 305.066 276.648 283.387 318.953C283.387 318.953 324.385 320.366 367.254 295.202L358.028 281.218L373.435 291.395C393.404 278.483 413.351 259.541 429.408 231.744L418.3 218.41L433.924 223.447C441.45 208.711 447.406 193.225 451.692 177.244Z" fill="#9FBB80"/>
<path d="M367.254 295.179L358.028 281.195L373.435 291.373C393.404 278.46 413.351 259.518 429.408 231.721L418.3 218.387L433.924 223.424C441.449 208.695 447.404 193.217 451.692 177.244C451.692 177.244 358.382 279.953 283.387 318.93C283.387 318.93 324.385 320.344 367.254 295.179Z" fill="#619668"/>
<path d="M283.387 318.93C283.387 318.93 370.47 269.867 451.692 177.244" stroke="#FEFEFE" stroke-width="0.71" stroke-miterlimit="10"/>
<path d="M397.43 201.725L394.955 234.981" stroke="#FEFEFE" stroke-width="0.71" stroke-miterlimit="10"/>
<path d="M370.938 255.793L404.706 265.218" stroke="#FEFEFE" stroke-width="0.71" stroke-miterlimit="10"/>
<path d="M329.723 288.239L334.718 250.219" stroke="#FEFEFE" stroke-width="0.71" stroke-miterlimit="10"/>
<path style="mix-blend-mode:multiply" opacity="0.33" d="M429.408 231.721L418.3 218.387L433.924 223.424C441.449 208.695 447.404 193.217 451.692 177.244C444.291 179.66 437.095 182.384 430.092 185.336L429.807 195.434L422.748 188.595C353.181 220.404 305.066 276.648 283.387 318.953C283.387 318.953 296.73 319.409 316.14 315.135C336.428 321.643 356.546 321.586 374.781 314.782L366.798 309.437L383.22 311.066C400.532 302.279 415.746 286.916 427.218 264.772C419.111 264.612 411.011 265.346 403.064 266.961C413.249 256.331 422.096 244.496 429.408 231.721Z" fill="url(#paint5_linear_35_208)"/>
<path d="M195.961 229.853L198.777 117.456L168.944 75.8121C166.033 71.7567 164.206 67.0263 163.636 62.0685C163.065 57.1107 163.769 52.0893 165.682 47.4794L174.806 25.3466C176.073 22.3077 178.213 19.712 180.955 17.8866C183.697 16.0612 186.918 15.0879 190.213 15.0894H190.327C190.327 15.0894 192.608 -4.59302 209.452 1.03705C217.332 4.45612 215.086 12.3314 215.086 12.3314C215.086 12.3314 230.276 -2.33645 236.469 17.9044C252.218 12.2744 257.841 21.3235 257.841 28.5833C270.226 26.8966 281.47 38.7038 281.47 74.1709C281.47 109.638 268.538 132.979 268.538 132.979L274.719 229.921L195.961 229.853Z" fill="#B76F56"/>
<g style="mix-blend-mode:multiply" opacity="0.55">
<path d="M260.623 74.5581C260.623 74.5581 246.014 81.3963 240.38 91.4483C240.107 80.8606 214.47 57.7933 198.777 54.4768C199.918 50.0548 201.594 43.228 201.594 43.228L208.79 42.6582C208.79 42.6582 204.742 61.8506 230.345 61.8506C229.706 76.1081 240.894 78.775 248.82 71.2758C252.115 75.1736 255.514 76.1765 260.623 74.5581Z" fill="#6B413D"/>
</g>
<path d="M257.898 28.5605C257.898 28.5605 245.353 66.7288 249.835 72.1993C254.317 77.6698 270.112 77.9889 273.978 51.9356L275.586 44.8581" stroke="#510202" stroke-width="0.99" stroke-miterlimit="10"/>
<path d="M236.48 17.8818C236.48 17.8818 229.261 58.9107 230.482 67.3786C231.702 75.8465 241.076 78.3082 248.82 71.2307" stroke="#510202" stroke-width="0.99" stroke-miterlimit="10"/>
<path d="M215.098 12.3086L213.467 19.0214" stroke="#510202" stroke-width="0.99" stroke-miterlimit="10"/>
<path d="M208.791 42.6465C208.791 42.6465 204.776 62.0212 230.345 61.8389" stroke="#510202" stroke-width="0.99" stroke-miterlimit="10"/>
<g style="mix-blend-mode:multiply" opacity="0.55">
<path d="M279.566 51.8672C279.566 51.947 274.274 105.011 266.234 110.801C258.194 116.59 248.705 114.345 239.605 116.59C230.504 118.835 246.596 117.24 255.571 120.135C264.546 123.029 273.282 126.562 256.86 126.562H226.935C226.935 126.562 263.953 128.169 265.242 156.194C266.508 177.723 265.379 215.002 264.843 229.887H274.73L268.549 132.945C268.549 132.945 281.482 109.57 281.482 74.1367C281.59 66.6682 280.948 59.2077 279.566 51.8672Z" fill="#6B413D"/>
</g>
<g style="mix-blend-mode:overlay" opacity="0.59">
<path d="M202.279 142.941C203.693 133.299 208.266 120.147 213.101 121.07C217.937 121.993 217.925 117.537 208.54 116.887C199.154 116.238 188.331 102.812 188.263 102.801L198.778 117.457L195.961 229.853C195.961 229.853 200.876 152.617 202.279 142.941Z" fill="white"/>
</g>
<path d="M201.594 43.1832C201.594 43.1832 191.445 41.6446 188.263 34.248" stroke="#510202" stroke-width="0.99" stroke-miterlimit="10"/>
<g style="mix-blend-mode:overlay" opacity="0.59">
<path d="M176.152 56.3231C176.517 41.8833 179.744 21.8589 190.225 24.4802C206.43 28.5261 224.54 20.3431 224.54 20.3431L221.062 19.7277L188.537 15.1689C185.549 15.4789 182.701 16.5892 180.292 18.3825C177.883 20.1758 176.004 22.5857 174.851 25.3578L165.728 47.4905C163.811 52.0952 163.1 57.1123 163.663 62.0678C164.226 67.0233 166.043 71.7536 168.944 75.8118L179.493 90.5138C177.01 79.2924 175.888 67.8128 176.152 56.3231Z" fill="white"/>
</g>
<g style="mix-blend-mode:overlay" opacity="0.59">
<path d="M193.087 6.75844C199.496 5.61875 212.087 4.86657 214.288 15.6594C223.411 12.1264 232.877 10.4055 235.671 22.6001C245.444 20.8564 255.799 25.4836 255.457 36.2764C266.212 35.9345 275.506 38.7154 277.046 43.1146C272.632 31.6151 265.459 27.5464 257.852 28.5835C257.852 21.2781 252.23 12.2745 236.48 17.9046C230.288 -2.33629 215.097 12.3315 215.097 12.3315C215.097 12.3315 217.378 4.41069 209.464 1.03721C200.488 -1.98297 195.641 2.19968 193.087 6.75844Z" fill="white"/>
<path d="M277.126 43.3086C277.161 43.4175 277.203 43.5241 277.251 43.6277L277.126 43.3086Z" fill="white"/>
</g>
<g style="mix-blend-mode:overlay" opacity="0.59">
<path d="M218.051 19.1355C216.268 20.6192 214.729 22.3728 213.489 24.3325C211.881 27.1476 204.286 23.8083 204.571 17.7451C208.994 18.7409 213.519 19.2077 218.051 19.1355Z" fill="white"/>
</g>
<path d="M222.441 135.02V175.627" stroke="#510202" stroke-width="0.99" stroke-miterlimit="10"/>
<path d="M232.397 142.143L235.066 166.327" stroke="#510202" stroke-width="0.99" stroke-miterlimit="10"/>
<path d="M190.225 15.0664C190.225 15.0664 210.661 19.3744 222.339 19.8189C223.119 19.8496 223.884 20.0451 224.583 20.3923C225.282 20.7395 225.9 21.2307 226.395 21.8336C226.891 22.4365 227.253 23.1373 227.458 23.8901C227.663 24.6429 227.707 25.4305 227.585 26.2012C225.886 37.051 219.123 42.7039 201.595 43.1826L198.778 54.4313C198.778 54.4313 248.296 70.7972 240.974 108.544" stroke="#510202" stroke-width="0.99" stroke-miterlimit="10"/>
<g style="mix-blend-mode:multiply" opacity="0.4">
<path d="M195.961 229.853H274.731L270.443 161.973C244.11 158.053 213.193 155.773 197.888 154.793L195.961 229.853Z" fill="#80251F"/>
</g>
<path d="M78.7697 126.108C78.7697 126.108 80.1383 101.331 138.893 100.875C135.221 117.389 131.549 146.748 132.929 164.629C117.784 166.464 78.3022 149.038 78.7697 126.108Z" fill="#A05C12"/>
<path d="M136.134 336.175C136.134 336.175 142.976 366.604 210.342 365.989C277.707 365.374 326.666 360.781 379.856 354.284L326.005 297.63L371.622 230.252C371.622 230.252 335.676 232.805 293.559 232.805C253.142 232.805 196.828 278.313 196.828 278.313L138.882 304.833C138.882 304.833 136.601 325.929 136.134 336.175Z" fill="white"/>
<path d="M347.878 320.64C311.886 325.369 190.498 339.331 141.118 319.773C139.732 320.672 138.399 321.65 137.126 322.702C136.693 327.603 136.305 332.561 136.134 336.174C136.134 336.174 142.976 366.603 210.342 365.988C277.707 365.372 326.666 360.779 379.856 354.283L347.878 320.64Z" fill="#007453"/>
<path d="M371.634 230.252C371.634 230.252 335.687 232.805 293.571 232.805C253.154 232.805 196.839 278.313 196.839 278.313L190.897 281.025C238.921 279.828 304.234 277.481 340.568 276.124L371.634 230.252Z" fill="#FFA22E"/>
<g style="mix-blend-mode:multiply" opacity="0.38">
<path d="M273.157 338.968C328.08 348.085 321.203 248.738 319.721 232.486C311.498 232.669 302.671 232.794 293.571 232.794C253.154 232.794 196.839 278.302 196.839 278.302L194.718 279.271L171.51 298.121C171.51 298.121 142.611 304.606 138.894 326.887C172.046 305.358 213.421 329.018 273.157 338.968Z" fill="#510202"/>
</g>
<path d="M301.371 311.865C301.371 311.865 297.698 337.098 264.649 328.379C231.599 319.661 205.905 309.119 176.071 311.865C146.237 314.612 139.349 319.205 136.156 336.175C135.7 290.77 133.624 285.937 142.234 282.382C150.845 278.826 244.486 274.928 266.975 282.382C289.464 289.835 302.751 293.516 301.371 311.865Z" fill="url(#paint6_linear_35_208)"/>
<path d="M78.7694 126.107C78.7694 126.107 64.9929 240.772 91.1545 263.246C117.316 285.721 189.836 288.012 250.884 295.819C284.846 299.944 300.459 302.657 301.371 311.865C305.933 290.314 311.931 219.209 301.371 198.569C290.81 177.929 245.832 170.134 212.793 166.008C179.755 161.882 86.1138 160.959 78.7694 126.107Z" fill="white"/>
<path fill-rule="evenodd" clip-rule="evenodd" d="M165.625 248.384C115.674 246.002 89.957 234.116 76.9902 224.098C79.1114 241.683 83.3653 256.556 91.1544 263.246C117.316 285.721 189.836 288.011 250.884 295.818C284.846 299.944 300.458 302.656 301.371 311.865C303.161 303.488 305.146 287.613 306.298 270.13C283.626 255.109 239.171 251.883 165.625 248.384Z" fill="#007453"/>
<path d="M94.2451 150.828C106.893 160.184 124.067 165.7 132.929 164.629C132.42 155.246 132.645 145.838 133.602 136.49C123.167 137.892 105.433 141.539 94.2451 150.828Z" fill="#9B9886"/>
<path fill-rule="evenodd" clip-rule="evenodd" d="M301.371 198.567C290.811 177.927 245.832 170.132 212.794 166.006C179.755 161.881 86.1142 160.958 78.7698 126.117C78.7698 126.117 75.6678 151.977 75.2002 181.54C89.0565 191.547 120.339 203.798 190.224 202.659C230.573 202.796 283.968 210.91 307.108 233.066C306.629 218.364 304.952 205.622 301.371 198.567Z" fill="#FFA22E"/>
<g style="mix-blend-mode:overlay" opacity="0.44">
<path d="M234.576 169.152C237.165 194.818 241.419 250.446 235.272 293.948C240.529 294.541 245.752 295.156 250.884 295.817C271.412 298.313 285.234 300.308 293.149 303.522C296.331 282.016 301.577 235.71 296.034 191.559C283.797 179.751 258.674 173.198 234.576 169.152Z" fill="white"/>
</g>
<g style="mix-blend-mode:overlay" opacity="0.44">
<path d="M113.587 275.145C106.22 225.135 105.752 173.712 106.014 149.779C98.3734 146.918 91.8273 143.465 87.0147 139.248C82.738 186.431 90.3333 240.145 94.8038 266.004C100.63 269.872 106.947 272.946 113.587 275.145Z" fill="white"/>
</g>
<g style="mix-blend-mode:overlay" opacity="0.48">
<path d="M145.177 173.711C209.292 183.672 277.616 193.941 306.879 227.755C306.184 215.333 304.507 204.734 301.371 198.591C290.811 177.951 245.832 170.155 212.794 166.03C179.755 161.904 86.1141 160.981 78.7697 126.141C78.7697 126.141 78.4275 128.944 77.96 133.765C78.8495 144.797 88.6458 164.913 145.177 173.711Z" fill="white"/>
</g>
</g>
<defs>
<linearGradient id="paint0_linear_35_208" x1="393.304" y1="78.3311" x2="363.834" y2="64.2414" gradientUnits="userSpaceOnUse">
<stop stop-color="white"/>
<stop offset="1" stop-color="#843836"/>
</linearGradient>
<linearGradient id="paint1_linear_35_208" x1="354.525" y1="59.1098" x2="316.619" y2="40.9874" gradientUnits="userSpaceOnUse">
<stop stop-color="white"/>
<stop offset="1" stop-color="#D8691E"/>
</linearGradient>
<linearGradient id="paint2_linear_35_208" x1="73.6883" y1="78.5192" x2="103.159" y2="64.4295" gradientUnits="userSpaceOnUse">
<stop stop-color="white"/>
<stop offset="1" stop-color="#843836"/>
</linearGradient>
<linearGradient id="paint3_linear_35_208" x1="112.468" y1="59.2978" x2="150.374" y2="41.1755" gradientUnits="userSpaceOnUse">
<stop stop-color="white"/>
<stop offset="1" stop-color="#D8691E"/>
</linearGradient>
<linearGradient id="paint4_linear_35_208" x1="29.4355" y1="237.289" x2="98.8113" y2="274.434" gradientUnits="userSpaceOnUse">
<stop stop-color="white"/>
<stop offset="1" stop-color="#647F75"/>
</linearGradient>
<linearGradient id="paint5_linear_35_208" x1="424.551" y1="237.932" x2="355.048" y2="275.299" gradientUnits="userSpaceOnUse">
<stop stop-color="white"/>
<stop offset="1" stop-color="#647F75"/>
</linearGradient>
<linearGradient id="paint6_linear_35_208" x1="196.28" y1="346.147" x2="221.867" y2="294.928" gradientUnits="userSpaceOnUse">
<stop stop-color="#448260"/>
<stop offset="1" stop-color="#122818"/>
</linearGradient>
<clipPath id="clip0_35_208">
<rect width="452" height="366" fill="white"/>
</clipPath>
</defs>
</svg>
