<svg width="106" height="153" viewBox="0 0 106 153" fill="none" xmlns="http://www.w3.org/2000/svg">
<path d="M52.8226 152.769C43.3086 152.769 34.5756 150.39 26.6236 145.633C18.6716 140.876 12.3171 134.522 7.56011 126.57C2.80311 118.618 0.424609 109.814 0.424609 100.158C0.424609 95.188 0.992609 90.573 2.12861 86.313C3.33561 82.053 5.18161 77.7575 7.66661 73.4265L49.4146 0.89999H79.5541L51.5446 49.3575C57.2956 48.9315 62.8336 49.4285 68.1586 50.8485C73.4836 52.2685 78.4181 54.505 82.9621 57.558C87.5061 60.611 91.4821 64.303 94.8901 68.634C98.2981 72.965 100.925 77.793 102.771 83.118C104.688 88.443 105.647 94.123 105.647 100.158C105.647 107.4 104.262 114.18 101.493 120.499C98.7951 126.818 95.0321 132.427 90.2041 137.326C85.3761 142.154 79.7671 145.953 73.3771 148.722C66.9871 151.42 60.1356 152.769 52.8226 152.769ZM52.8226 126.783C58.0056 126.783 62.6206 125.54 66.6676 123.055C70.7146 120.499 73.8741 117.198 76.1461 113.151C78.4891 109.104 79.6606 104.808 79.6606 100.264C79.6606 95.3655 78.4891 90.8925 76.1461 86.8455C73.8031 82.7985 70.6081 79.568 66.5611 77.154C62.5851 74.74 58.0766 73.533 53.0356 73.533C47.8526 73.533 43.2376 74.811 39.1906 77.367C35.2146 79.852 32.0906 83.118 29.8186 87.165C27.5466 91.212 26.4106 95.5785 26.4106 100.264C26.4106 105.305 27.6531 109.814 30.1381 113.79C32.6231 117.766 35.8536 120.925 39.8296 123.268C43.8766 125.611 48.2076 126.783 52.8226 126.783Z" fill="#FF6952" fill-opacity="0.2"/>
</svg>
