<svg width="97" height="156" viewBox="0 0 97 156" fill="none" xmlns="http://www.w3.org/2000/svg">
<path d="M48.4254 155.769C39.4084 155.769 31.2789 153.639 24.0369 149.379C16.7949 145.119 11.0439 139.403 6.78391 132.232C2.52391 124.99 0.393907 116.967 0.393907 108.163H26.3799C26.3799 112.139 27.3029 115.76 29.1489 119.026C31.0659 122.292 33.6929 124.919 37.0299 126.907C40.3669 128.824 44.1654 129.783 48.4254 129.783C52.3304 129.783 55.9514 128.824 59.2884 126.907C62.6964 124.919 65.4299 122.292 67.4889 119.026C69.5479 115.76 70.5774 112.139 70.5774 108.163C70.5774 102.98 69.1929 98.685 66.4239 95.277C63.6549 91.798 59.7854 89.2065 54.8154 87.5025C49.9164 85.7985 44.2009 84.9465 37.6689 84.9465V64.9245C46.4729 64.9245 53.4309 63.256 58.5429 59.919C63.7259 56.582 66.3174 51.683 66.3174 45.222C66.3174 41.885 65.4654 38.832 63.7614 36.063C62.0574 33.294 59.7854 31.093 56.9454 29.46C54.1764 27.756 51.1234 26.904 47.7864 26.904C44.3784 26.904 41.0769 27.756 37.8819 29.46C34.6869 31.093 32.0599 33.294 30.0009 36.063C28.0129 38.832 27.0189 41.885 27.0189 45.222H1.03291C1.03291 39.116 2.27541 33.4005 4.76041 28.0755C7.24541 22.6795 10.6534 17.958 14.9844 13.911C19.3864 9.86399 24.3564 6.70449 29.8944 4.43249C35.5034 2.08949 41.3609 0.91799 47.4669 0.91799C55.4899 0.91799 62.9094 2.90599 69.7254 6.88199C76.5414 10.858 82.0084 16.183 86.1264 22.857C90.2444 29.531 92.3034 36.986 92.3034 45.222C92.3034 50.973 90.9544 56.6175 88.2564 62.1555C85.5584 67.6935 81.7244 71.5985 76.7544 73.8705C81.0854 75.4325 84.7064 78.0595 87.6174 81.7515C90.5284 85.3725 92.7294 89.526 94.2204 94.212C95.7824 98.827 96.5634 103.477 96.5634 108.163C96.5634 116.896 94.3624 124.884 89.9604 132.126C85.5584 139.297 79.7009 145.048 72.3879 149.379C65.1459 153.639 57.1584 155.769 48.4254 155.769Z" fill="#FF6952" fill-opacity="0.2"/>
</svg>
