<svg width="102" height="152" viewBox="0 0 102 152" fill="none" xmlns="http://www.w3.org/2000/svg">
<path d="M0.83543 152V128.783C5.45043 125.304 10.9174 121.008 17.2364 115.896C23.5554 110.713 30.0519 105.14 36.7259 99.176C43.3999 93.141 49.5769 87.106 55.2569 81.071C60.9369 75.036 65.5519 69.285 69.1019 63.818C72.7229 58.351 74.5334 53.665 74.5334 49.76C74.5334 45.429 73.4684 41.4885 71.3384 37.9385C69.2084 34.3175 66.3684 31.442 62.8184 29.312C59.3394 27.182 55.4344 26.117 51.1034 26.117C46.7724 26.117 42.8319 27.182 39.2819 29.312C35.7319 31.442 32.8919 34.3175 30.7619 37.9385C28.6319 41.4885 27.5669 45.429 27.5669 49.76H1.58093C1.58093 40.388 3.85293 31.9745 8.39693 24.5195C12.9409 16.9935 18.9404 11.065 26.3954 6.73399C33.9214 2.33199 42.1574 0.130987 51.1034 0.130987C60.1914 0.130987 68.4629 2.36749 75.9179 6.8405C83.3729 11.2425 89.3369 17.2065 93.8099 24.7325C98.2829 32.2585 100.519 40.601 100.519 49.76C100.519 54.588 99.6319 59.4515 97.8569 64.3505C96.0819 69.2495 93.5969 74.184 90.4019 79.154C87.2069 84.124 83.4439 89.165 79.1129 94.277C74.7819 99.318 69.9894 104.501 64.7354 109.826C59.5524 115.08 54.0854 120.476 48.3344 126.014H101.265V152H0.83543Z" fill="#FF6952" fill-opacity="0.2"/>
</svg>
